<?xml version="1.0" encoding="utf-8"?>
<!-- Generator: Adobe Illustrator 16.0.0, SVG Export Plug-In . SVG Version: 6.00 Build 0)  -->
<!DOCTYPE svg PUBLIC "-//W3C//DTD SVG 1.1//EN" "http://www.w3.org/Graphics/SVG/1.1/DTD/svg11.dtd">
<svg version="1.1" id="Layer_1" xmlns="http://www.w3.org/2000/svg" xmlns:xlink="http://www.w3.org/1999/xlink" x="0px" y="0px"
	 width="600px" height="600px" viewBox="0 0 600 600" enable-background="new 0 0 600 600" xml:space="preserve">
<g>
	<g>
		
			<rect x="110.503" y="227.529" transform="matrix(-0.6154 -0.7882 0.7882 -0.6154 186.765 551.1454)" fill="#E6FBF5" width="234.68" height="4.96"/>
	</g>
</g>
<g>
	<g>
		
			<rect x="187.25" y="245.265" transform="matrix(-0.3418 -0.9398 0.9398 -0.3418 -86.1892 664.8548)" fill="#E6FBF5" width="4.96" height="234.69"/>
	</g>
</g>
<g>
	<g>
		
			<rect x="186.723" y="437.321" transform="matrix(-0.0346 -0.9994 0.9994 -0.0346 -124.962 758.8885)" fill="#E6FBF5" width="234.682" height="4.96"/>
	</g>
</g>
<g>
	<g>
		
			<rect x="295.48" y="352.411" transform="matrix(-0.9612 -0.276 0.276 -0.9612 711.6737 809.9331)" fill="#E6FBF5" width="234.692" height="4.959"/>
	</g>
</g>
<g>
	<g>
		
			<rect x="363.142" y="107.852" transform="matrix(-0.8289 -0.5595 0.5595 -0.8289 542.6805 616.3984)" fill="#E6FBF5" width="4.959" height="234.684"/>
	</g>
</g>
<circle fill="#06D79C" cx="300.05" cy="323.508" r="91.453"/>
<g>
	<path fill="#E6FBF5" d="M295.189,557.894c-3.273-0.099-6.547-0.198-9.82-0.396l0.297-4.96c3.174,0.199,6.447,0.298,9.622,0.397
		L295.189,557.894z M305.01,557.894l-0.1-4.959c3.174-0.1,6.447-0.198,9.621-0.397l0.298,4.96
		C311.655,557.695,308.382,557.894,305.01,557.894z M275.55,556.703c-3.273-0.297-6.547-0.793-9.82-1.189l0.694-4.86
		c3.174,0.495,6.348,0.893,9.621,1.189L275.55,556.703z M324.748,556.703l-0.496-4.959c3.174-0.298,6.447-0.694,9.621-1.19
		l0.694,4.86C331.294,555.91,328.021,556.406,324.748,556.703z M256.009,553.926c-3.273-0.595-6.447-1.289-9.622-2.082l1.091-4.86
		c3.075,0.694,6.249,1.389,9.423,1.983L256.009,553.926z M344.288,553.827l-0.893-4.86c3.174-0.596,6.349-1.289,9.423-1.984
		l1.092,4.86C350.735,552.537,347.462,553.231,344.288,553.827z M236.767,549.363c-3.174-0.893-6.348-1.785-9.423-2.876l1.488-4.762
		c3.075,0.992,6.15,1.885,9.225,2.777L236.767,549.363z M363.432,549.363l-1.289-4.761c3.075-0.893,6.149-1.785,9.225-2.777
		l1.488,4.761C369.78,547.479,366.606,548.471,363.432,549.363z M218.02,543.312c-3.075-1.091-6.15-2.38-9.225-3.67l1.884-4.562
		c2.976,1.289,5.952,2.479,9.026,3.571L218.02,543.312z M382.179,543.214l-1.687-4.662c2.977-1.091,5.952-2.281,8.928-3.571
		l1.885,4.563C388.328,540.933,385.254,542.123,382.179,543.214z M199.769,535.676c-2.976-1.39-5.951-2.877-8.828-4.365l2.282-4.364
		c2.876,1.488,5.753,2.976,8.629,4.266L199.769,535.676z M400.331,535.576l-2.083-4.464c2.876-1.389,5.753-2.777,8.629-4.265
		l2.281,4.364C406.282,532.699,403.307,534.188,400.331,535.576z M182.311,526.45c-2.876-1.686-5.654-3.372-8.431-5.157l2.678-4.166
		c2.678,1.686,5.456,3.372,8.233,5.059L182.311,526.45z M417.788,526.45l-2.479-4.265c2.777-1.587,5.555-3.273,8.232-4.96
		l2.678,4.166C423.441,523.078,420.565,524.863,417.788,526.45z M434.353,515.937l-2.876-4.066c2.678-1.786,5.257-3.77,7.836-5.654
		l2.976,3.968C439.709,512.068,437.031,514.052,434.353,515.937z M165.647,515.937c-2.678-1.885-5.356-3.868-7.935-5.853
		l2.976-3.968c2.579,1.984,5.158,3.869,7.836,5.654L165.647,515.937z M450.024,504.033l-3.174-3.868
		c2.479-2.083,4.96-4.166,7.34-6.348l3.273,3.67C455.083,499.769,452.604,501.951,450.024,504.033z M149.975,503.935
		c-2.479-2.083-5.059-4.266-7.439-6.447l3.273-3.67c2.381,2.182,4.86,4.265,7.34,6.348L149.975,503.935z M464.705,490.842
		l-3.472-3.571c2.281-2.281,4.562-4.562,6.745-6.943l3.57,3.372C469.367,486.18,467.086,488.561,464.705,490.842z M135.295,490.742
		c-2.281-2.281-4.662-4.662-6.943-7.042l3.571-3.373c2.182,2.381,4.463,4.662,6.745,6.943L135.295,490.742z M478.194,476.459
		l-3.769-3.273c2.083-2.381,4.166-4.959,6.149-7.439l3.868,3.075C482.46,471.4,480.377,473.979,478.194,476.459z M121.805,476.359
		c-2.182-2.479-4.265-5.059-6.249-7.638l3.869-3.074c1.984,2.479,4.067,4.959,6.149,7.438L121.805,476.359z M490.494,460.985
		l-3.968-2.877c1.885-2.578,3.77-5.257,5.555-7.935l4.166,2.777C494.362,455.629,492.379,458.307,490.494,460.985z M109.506,460.985
		c-1.885-2.679-3.77-5.356-5.654-8.034l4.166-2.777c1.785,2.678,3.67,5.356,5.554,7.935L109.506,460.985z M98.595,444.619
		c-1.686-2.777-3.373-5.654-4.959-8.53L98,433.708c1.587,2.777,3.174,5.654,4.86,8.332L98.595,444.619z M501.405,444.52
		l-4.266-2.579c1.687-2.777,3.273-5.555,4.86-8.332l4.364,2.381C504.777,438.866,503.19,441.742,501.405,444.52z M89.073,427.359
		c-1.488-2.876-2.876-5.951-4.166-8.927l4.562-1.983c1.29,2.876,2.678,5.852,4.067,8.729L89.073,427.359z M510.928,427.261
		l-4.464-2.183c1.389-2.876,2.777-5.852,4.166-8.729l4.562,1.984C513.804,421.31,512.415,424.285,510.928,427.261z M81.038,409.406
		c-1.19-3.074-2.38-6.149-3.472-9.225l4.662-1.587c1.091,2.976,2.182,6.051,3.373,9.026L81.038,409.406z M519.061,409.208
		l-4.562-1.785c1.19-2.976,2.281-6.051,3.373-9.026l4.661,1.587C521.343,403.059,520.251,406.133,519.061,409.208z M74.591,390.759
		c-0.992-3.175-1.885-6.349-2.678-9.522l4.761-1.189c0.793,3.074,1.686,6.248,2.579,9.323L74.591,390.759z M525.508,390.561
		l-4.761-1.389c0.893-3.075,1.785-6.15,2.579-9.324l4.761,1.19C527.393,384.213,526.5,387.387,525.508,390.561z M69.631,371.615
		c-0.694-3.174-1.29-6.447-1.885-9.721l4.86-0.793c0.496,3.174,1.19,6.348,1.786,9.521L69.631,371.615z M530.369,371.416
		l-4.861-0.991c0.695-3.174,1.29-6.349,1.786-9.522l4.86,0.794C531.658,364.969,531.062,368.242,530.369,371.416z M66.358,352.174
		c-0.396-3.273-0.793-6.547-0.992-9.82l4.959-0.396c0.297,3.174,0.595,6.447,0.992,9.621L66.358,352.174z M533.642,351.976
		l-4.959-0.595c0.396-3.175,0.694-6.349,0.991-9.622l4.96,0.397C534.436,345.43,534.039,348.801,533.642,351.976z M64.771,332.534
		c-0.099-3.272-0.198-6.546-0.198-9.819h4.959c0,3.174,0.099,6.447,0.198,9.621L64.771,332.534z M535.328,332.336l-4.959-0.198
		c0.099-3.175,0.198-6.448,0.198-9.622v-0.496h4.959v0.496C535.526,325.789,535.428,329.062,535.328,332.336z M69.631,313.094
		l-4.959-0.199c0.099-3.273,0.297-6.547,0.595-9.82l4.959,0.397C70.028,306.646,69.83,309.82,69.631,313.094z M530.369,312.398
		c-0.1-3.174-0.298-6.447-0.596-9.621l4.96-0.396c0.297,3.273,0.495,6.547,0.595,9.819L530.369,312.398z M71.218,293.85
		l-4.959-0.595c0.397-3.273,0.893-6.546,1.389-9.72l4.86,0.793C72.111,287.403,71.615,290.676,71.218,293.85z M528.683,293.156
		c-0.397-3.174-0.893-6.447-1.389-9.522l4.86-0.793c0.496,3.174,0.991,6.447,1.487,9.72L528.683,293.156z M74.393,274.806
		l-4.86-0.992c0.694-3.174,1.389-6.448,2.281-9.622l4.761,1.19C75.781,268.458,75.087,271.632,74.393,274.806z M525.508,274.111
		c-0.693-3.075-1.389-6.249-2.182-9.423l4.761-1.19c0.794,3.174,1.587,6.447,2.281,9.622L525.508,274.111z M79.154,256.059
		l-4.761-1.389c0.992-3.174,1.984-6.348,3.075-9.423l4.662,1.587C81.137,249.909,80.146,252.984,79.154,256.059z M520.648,255.464
		c-0.894-3.075-1.984-6.15-2.977-9.225l4.662-1.687c1.092,3.075,2.083,6.249,3.075,9.423L520.648,255.464z M85.502,237.808
		l-4.662-1.785c1.19-3.075,2.479-6.15,3.868-9.125l4.563,1.984C87.981,231.757,86.692,234.832,85.502,237.808z M514.3,237.213
		c-1.19-2.976-2.479-5.952-3.77-8.828l4.563-1.984c1.289,2.976,2.578,6.051,3.868,9.026L514.3,237.213z M93.437,220.152
		l-4.464-2.182c1.488-2.976,2.976-5.852,4.563-8.729l4.364,2.38C96.313,214.399,94.826,217.275,93.437,220.152z M506.364,219.656
		c-1.389-2.876-2.976-5.753-4.463-8.53l4.364-2.381c1.587,2.876,3.075,5.753,4.562,8.729L506.364,219.656z M102.662,203.19
		l-4.265-2.579c1.686-2.777,3.472-5.555,5.257-8.332l4.166,2.777C106.133,197.735,104.348,200.413,102.662,203.19z M497.041,202.794
		c-1.687-2.777-3.373-5.456-5.158-8.134l4.166-2.777c1.785,2.678,3.571,5.555,5.257,8.332L497.041,202.794z M113.374,187.122
		l-3.967-2.877c1.884-2.678,3.967-5.257,5.951-7.836l3.869,3.075C117.243,181.865,115.259,184.444,113.374,187.122z
		 M486.328,186.725c-1.885-2.579-3.868-5.158-5.852-7.638l3.868-3.075c1.983,2.579,4.066,5.158,5.951,7.836L486.328,186.725z
		 M125.376,171.946l-3.769-3.273c2.182-2.479,4.364-4.959,6.646-7.34l3.571,3.373C129.641,167.085,127.459,169.565,125.376,171.946z
		 M474.326,171.648c-2.083-2.381-4.265-4.86-6.447-7.142l3.571-3.373c2.281,2.381,4.463,4.86,6.646,7.34L474.326,171.648z
		 M138.568,157.861l-3.472-3.571c2.38-2.281,4.761-4.563,7.142-6.745l3.273,3.67C143.23,153.397,140.949,155.58,138.568,157.861z
		 M461.134,157.563c-2.281-2.282-4.662-4.464-7.042-6.646l3.273-3.67c2.479,2.182,4.859,4.463,7.24,6.745L461.134,157.563z
		 M152.951,144.966l-3.174-3.769c2.479-2.083,5.158-4.166,7.737-6.15l2.976,3.968C157.91,140.899,155.431,142.883,152.951,144.966z
		 M446.752,144.668c-2.48-1.984-4.96-4.067-7.539-5.951l2.976-3.968c2.579,1.984,5.257,4.067,7.737,6.15L446.752,144.668z
		 M168.325,133.262l-2.876-4.067c2.678-1.884,5.456-3.67,8.233-5.456l2.678,4.166C173.583,129.592,170.904,131.377,168.325,133.262z
		 M431.377,132.964c-2.678-1.785-5.356-3.67-8.034-5.356l2.678-4.166c2.777,1.786,5.555,3.571,8.233,5.456L431.377,132.964z
		 M184.592,122.946l-2.479-4.265c2.876-1.686,5.753-3.273,8.629-4.761l2.281,4.365C190.147,119.772,187.271,121.26,184.592,122.946z
		 M415.011,122.648c-2.777-1.587-5.654-3.174-8.432-4.662l2.282-4.364c2.876,1.488,5.852,3.075,8.629,4.761L415.011,122.648z
		 M201.653,113.919l-2.083-4.463c2.976-1.389,5.951-2.777,9.026-3.968l1.884,4.563C207.505,111.242,204.53,112.531,201.653,113.919z
		 M397.95,113.721c-2.877-1.389-5.853-2.678-8.828-3.967l1.885-4.563c3.075,1.29,6.051,2.579,9.026,3.968L397.95,113.721z
		 M219.309,106.48l-1.786-4.662c3.075-1.19,6.15-2.281,9.324-3.273l1.587,4.761C225.459,104.298,222.384,105.29,219.309,106.48z
		 M380.096,106.183c-2.976-1.091-6.051-2.182-9.125-3.174l1.487-4.761c3.175,0.992,6.249,2.083,9.324,3.273L380.096,106.183z
		 M237.659,100.43l-1.29-4.761c3.174-0.893,6.348-1.687,9.522-2.48l1.091,4.86C243.908,98.843,240.734,99.636,237.659,100.43z
		 M361.646,100.331c-3.075-0.893-6.249-1.686-9.324-2.38l1.092-4.86c3.174,0.694,6.447,1.587,9.521,2.479L361.646,100.331z
		 M256.505,96.065l-0.893-4.86c3.174-0.595,6.448-1.19,9.721-1.686l0.694,4.86C262.854,94.875,259.58,95.47,256.505,96.065z
		 M342.899,95.966c-3.174-0.595-6.348-1.091-9.522-1.587l0.694-4.86c3.273,0.496,6.547,0.992,9.721,1.587L342.899,95.966z
		 M275.55,93.189l-0.496-4.959c3.273-0.298,6.546-0.595,9.82-0.793l0.297,4.959C281.997,92.594,278.724,92.892,275.55,93.189z
		 M323.756,93.189c-3.174-0.297-6.447-0.595-9.621-0.793l0.297-4.959c3.273,0.198,6.547,0.496,9.82,0.793L323.756,93.189z
		 M294.892,91.999l-0.099-4.959c1.786,0,3.472,0,5.257-0.099c1.487,0,3.075,0,4.562,0l-0.099,4.959c-1.488,0-3.076,0-4.563,0
		C298.165,91.899,296.479,91.999,294.892,91.999z"/>
</g>
<circle opacity="0.08" fill="#FFFFFF" enable-background="new    " cx="300.05" cy="323.508" r="77.368"/>
<circle fill="#E6FBF5" cx="300.05" cy="77.814" r="66.358"/>
<circle fill="#E6FBF5" cx="66.358" cy="247.529" r="66.358"/>
<circle fill="#E6FBF5" cx="155.629" cy="522.285" r="66.358"/>
<circle fill="#E6FBF5" cx="444.47" cy="522.285" r="66.358"/>
<circle fill="#E6FBF5" cx="533.741" cy="247.529" r="66.358"/>
<circle opacity="0.08" fill="#FFFFFF" enable-background="new    " cx="300.05" cy="323.508" r="67.647"/>
<circle opacity="0.08" fill="#FFFFFF" enable-background="new    " cx="300.05" cy="323.508" r="55.051"/>
<g id="XMLID_52_">
	<g id="XMLID_191_">
		<circle fill="#5FB0E5" cx="326.335" cy="86.741" r="0.992"/>
	</g>
	<g id="XMLID_190_">
		<circle fill="#5FB0E5" cx="314.631" cy="81.187" r="0.992"/>
	</g>
	<g id="XMLID_189_">
		<circle fill="#5FB0E5" cx="280.311" cy="80.294" r="0.992"/>
	</g>
	<g id="XMLID_188_">
		<circle fill="#5FB0E5" cx="324.748" cy="66.309" r="1.587"/>
	</g>
	<g id="XMLID_187_">
		<circle fill="#5FB0E5" cx="275.351" cy="62.242" r="1.885"/>
	</g>
	<g id="XMLID_50_">
		<circle fill="#5FB0E5" cx="271.78" cy="87.733" r="1.587"/>
	</g>
	<g id="XMLID_868_">
		<path fill="#FFFFFF" d="M314.928,69.78c0,0.992-0.793,1.785-1.785,1.785l0,0c-0.992,0-1.785-0.793-1.785-1.785v-1.687
			c0-0.992,0.793-1.785,1.785-1.785l0,0c0.992,0,1.785,0.793,1.785,1.785V69.78z"/>
	</g>
	<g id="XMLID_867_">
		<path id="XMLID_1526_" fill="#0686D8" d="M313.242,72.558c-1.488,0-2.777-1.29-2.777-2.777v-1.687
			c0-1.488,1.289-2.777,2.777-2.777c1.587,0,2.777,1.29,2.777,2.777v1.687C316.02,71.268,314.729,72.558,313.242,72.558z
			 M313.242,67.3c-0.397,0-0.794,0.297-0.794,0.793v1.687c0,0.396,0.298,0.793,0.794,0.793c0.396,0,0.793-0.298,0.793-0.793v-1.687
			C313.937,67.697,313.639,67.3,313.242,67.3z"/>
	</g>
	<g id="XMLID_866_">
		<path fill="#FFFFFF" d="M285.072,69.78c0,0.992-0.793,1.785-1.785,1.785l0,0c-0.992,0-1.786-0.793-1.786-1.785v-1.687
			c0-0.992,0.793-1.785,1.786-1.785l0,0c0.992,0,1.785,0.793,1.785,1.785V69.78z"/>
	</g>
	<g id="XMLID_865_">
		<path id="XMLID_1523_" fill="#0686D8" d="M283.287,72.558c-1.488,0-2.777-1.29-2.777-2.777v-1.687c0-1.488,1.29-2.777,2.777-2.777
			c1.587,0,2.777,1.29,2.777,2.777v1.687C286.064,71.268,284.774,72.558,283.287,72.558z M283.287,67.3
			c-0.397,0-0.793,0.297-0.793,0.793v1.687c0,0.396,0.297,0.793,0.793,0.793c0.396,0,0.793-0.298,0.793-0.793v-1.687
			C283.981,67.697,283.683,67.3,283.287,67.3z"/>
	</g>
	<g id="XMLID_864_">
		<path fill="#9ECFEF" d="M317.309,105.984v-5.356c0-8.927-8.53-16.168-18.846-16.168l0,0c-10.415,0-18.846,7.241-18.846,16.168
			v5.356H317.309z"/>
	</g>
	<g id="XMLID_218_">
		<path id="XMLID_1522_" fill="#0686D8" d="M280.608,105.984h-2.083v-5.356c0-1.389,0.198-2.777,0.595-4.066l1.984,0.595
			c-0.298,1.19-0.496,2.38-0.496,3.571V105.984z"/>
	</g>
	<g id="XMLID_217_">
		<path id="XMLID_1521_" fill="#0686D8" d="M282.394,94.082l-1.785-0.992c0.992-1.687,2.182-3.174,3.67-4.563l1.389,1.488
			C284.278,91.205,283.188,92.594,282.394,94.082z"/>
	</g>
	<g id="XMLID_213_">
		<path id="XMLID_1520_" fill="#0686D8" d="M318.399,105.984h-2.083v-5.356c0-8.332-8.034-15.176-17.854-15.176
			c-3.67,0-7.142,0.893-10.117,2.678l-1.091-1.786c3.273-1.984,7.241-2.976,11.208-2.976c11.01,0,19.937,7.737,19.937,17.259
			V105.984L318.399,105.984z"/>
	</g>
	<g id="XMLID_126_">
		<path fill="#FFFFFF" d="M301.339,90.213V79.501c0-1.687-1.389-3.075-3.075-3.075h-0.992c-1.687,0-3.075,1.389-3.075,3.075v10.812
			l3.571,2.777L301.339,90.213z"/>
	</g>
	<g id="XMLID_127_">
		<path id="XMLID_1517_" fill="#0686D8" d="M297.768,94.379l-4.562-3.67V79.501c0-2.282,1.785-4.067,4.067-4.067h0.992
			c2.281,0,4.067,1.785,4.067,4.067v11.308L297.768,94.379z M295.289,89.717l2.479,1.984l2.48-1.984V79.501
			c0-1.091-0.893-1.984-1.984-1.984h-0.992c-1.091,0-1.984,0.893-1.984,1.984V89.717z"/>
	</g>
	<g id="XMLID_827_">
		<path fill="#FFFFFF" d="M298.066,83.964L298.066,83.964c-7.34,0-13.391-6.051-13.391-13.391v-9.125
			c0-7.34,6.05-7.241,13.391-7.241l0,0c7.34,0,13.39-0.198,13.39,7.241v9.125C311.556,77.914,305.505,83.964,298.066,83.964z"/>
	</g>
	<g id="XMLID_855_">
		<path id="XMLID_1514_" fill="#0686D8" d="M298.066,84.956c-7.936,0-14.482-6.447-14.482-14.481v-9.125
			c0-3.77,1.488-6.15,4.463-7.241c2.48-0.992,5.952-0.992,9.522-0.992h0.992c3.571,0,7.042,0,9.522,0.992
			c2.976,1.19,4.464,3.571,4.464,7.241v9.125C312.548,78.509,306.001,84.956,298.066,84.956z M297.173,55.298
			c-3.273,0-6.249,0-8.332,0.793c-1.488,0.595-3.174,1.687-3.174,5.356v9.125c0,6.844,5.555,12.398,12.399,12.398
			s12.399-5.554,12.399-12.398v-9.125c0-3.67-1.687-4.761-3.175-5.356c-2.182-0.793-5.356-0.793-8.828-0.793h-0.992
			C297.471,55.298,297.272,55.298,297.173,55.298z"/>
	</g>
	<g id="XMLID_179_">
		<path fill="#5FB0E5" d="M284.774,67.201L284.774,67.201c-1.786,0-3.174-1.488-3.174-3.174V56.29c0-2.678,2.182-4.86,4.86-4.86l0,0
			l0,0c0-2.182,1.786-3.968,3.968-3.968h19.541c2.678,0,4.761,2.182,4.761,4.761v11.605c0,1.687-1.487,3.075-3.174,2.976l0,0v-7.637
			c0,0-2.183,3.571-9.126,3.571c-8.431,0-13.886-4.166-13.886-4.166s-0.496,1.091-1.686,2.182c-0.992,0.893-2.083,0.595-2.083,0.595
			V67.201L284.774,67.201z"/>
	</g>
	<g id="XMLID_151_">
		<path id="XMLID_1513_" fill="#0686D8" d="M285.766,68.193h-0.992c-2.381,0-4.265-1.884-4.265-4.265v-7.737
			c0-2.876,2.083-5.356,4.86-5.753c0.396-2.281,2.479-4.067,4.86-4.067h19.541c3.174,0,5.852,2.579,5.852,5.853v11.605
			c0,1.091-0.495,2.182-1.289,2.876c-0.794,0.793-1.885,1.19-2.976,1.091l-0.992-0.099v-8.63h2.083v6.448
			c0.198-0.099,0.396-0.199,0.496-0.298c0.396-0.396,0.595-0.893,0.595-1.389V52.224c0-2.083-1.686-3.77-3.769-3.77H290.23
			c-1.587,0-2.976,1.29-2.976,2.976v0.992h-0.992c-2.083,0-3.769,1.686-3.769,3.769v7.737c0,0.794,0.496,1.587,1.19,1.984V59.96
			l1.29,0.396c0,0,0.496,0.099,1.091-0.396c0.893-0.793,1.389-1.786,1.389-1.786l1.884,0.893c0,0.1-0.595,1.389-1.884,2.48
			c-0.595,0.496-1.19,0.793-1.687,0.893V68.193L285.766,68.193z"/>
	</g>
	<g id="XMLID_133_">
		<path id="XMLID_1512_" fill="#0686D8" d="M302.331,63.729L302.331,63.729c-8.63,0-16.069-5.356-16.366-5.654l1.19-1.686
			c0.099,0.099,7.142,5.257,15.078,5.257l0,0c6.248,0,9.125-4.166,9.224-4.265l1.687,1.091
			C313.043,58.77,309.671,63.729,302.331,63.729z"/>
	</g>
	<g id="XMLID_4_">
		<polygon id="XMLID_1511_" fill="#0686D8" points="299.157,73.847 295.189,73.847 295.189,65.515 297.173,65.515 297.173,71.863 
			299.157,71.863 		"/>
	</g>
	<g id="XMLID_47_">
		<rect id="XMLID_1510_" x="290.13" y="66.11" fill="#0686D8" width="3.174" height="2.083"/>
	</g>
	<g id="XMLID_46_">
		<rect id="XMLID_1509_" x="302.728" y="66.11" fill="#0686D8" width="3.175" height="2.083"/>
	</g>
	<g id="XMLID_51_">
		<rect id="XMLID_1508_" x="294.693" y="76.922" fill="#0686D8" width="6.745" height="2.083"/>
	</g>
</g>
<g id="XMLID_61_">
	<g id="XMLID_71_">
		<circle fill="#5FB0E5" cx="82.328" cy="261.713" r="0.893"/>
	</g>
	<g id="XMLID_196_">
		<circle fill="#5FB0E5" cx="47.909" cy="258.043" r="0.893"/>
	</g>
	<g id="XMLID_194_">
		<circle fill="#5FB0E5" cx="90.957" cy="242.271" r="1.29"/>
	</g>
	<g id="XMLID_198_">
		<circle fill="#5FB0E5" cx="41.263" cy="270.342" r="1.29"/>
	</g>
	<g id="XMLID_195_">
		<circle fill="#5FB0E5" cx="90.957" cy="269.052" r="1.785"/>
	</g>
	<g id="XMLID_197_">
		<circle fill="#5FB0E5" cx="41.263" cy="238.205" r="1.785"/>
	</g>
	<g id="XMLID_193_">
		<g id="XMLID_211_">
			<path fill="#9ECFEF" d="M89.37,254.869h-5.555H72.31v-25.492c0-3.77,3.075-6.844,6.844-6.844l0,0
				c3.769,0,6.844,3.075,6.844,6.844v22.218C85.998,253.083,86.99,254.869,89.37,254.869z"/>
		</g>
		<g id="XMLID_210_">
			<path id="XMLID_1505_" fill="#0686D8" d="M89.37,255.86H71.317v-26.483c0-4.365,3.472-7.836,7.836-7.836
				c4.364,0,7.836,3.472,7.836,7.836v22.218c0,0.595,0.198,1.29,0.694,1.686c0.396,0.397,0.992,0.694,1.785,0.694v1.885H89.37z
				 M73.301,253.876H85.7c-0.397-0.694-0.694-1.488-0.595-2.281v-22.218c0-3.273-2.678-5.853-5.852-5.853
				c-3.273,0-5.853,2.678-5.853,5.853v24.5H73.301z"/>
		</g>
		<g id="XMLID_239_">
			<g id="XMLID_209_">
				<path fill="#9ECFEF" d="M79.352,240.486v-8.629c0-7.34-6.051-13.391-13.391-13.391h-2.381c-7.34,0-13.391,6.051-13.391,13.391
					v8.629H79.352z"/>
			</g>
			<g id="XMLID_208_">
				<path id="XMLID_5_" fill="#9ECFEF" d="M79.352,240.486v-8.629c0-7.34-6.051-13.391-13.391-13.391h-2.381
					c-7.34,0-13.391,6.051-13.391,13.391v8.629H79.352z"/>
				<path id="XMLID_1501_" fill="#0686D8" d="M80.344,241.478H49.198v-9.622c0-7.935,6.447-14.382,14.382-14.382h2.381
					c7.935,0,14.382,6.447,14.382,14.382V241.478z M51.182,239.494H78.36v-7.638c0-6.844-5.554-12.399-12.398-12.399h-2.381
					c-6.844,0-12.398,5.555-12.398,12.399V239.494z"/>
			</g>
		</g>
		<g id="XMLID_184_">
			<path fill="#FFFFFF" d="M81.435,242.569c0,0.992-0.793,1.786-1.786,1.786l0,0c-0.992,0-1.785-0.793-1.785-1.786v-1.686
				c0-0.992,0.793-1.786,1.785-1.786l0,0c0.992,0,1.786,0.793,1.786,1.786V242.569z"/>
		</g>
		<g id="XMLID_183_">
			<path id="XMLID_1498_" fill="#0686D8" d="M79.649,245.247c-1.488,0-2.678-1.19-2.678-2.678v-1.686
				c0-1.488,1.19-2.678,2.678-2.678s2.678,1.19,2.678,2.678v1.686C82.427,244.057,81.137,245.247,79.649,245.247z M79.649,240.089
				c-0.396,0-0.793,0.297-0.793,0.793v1.686c0,0.397,0.298,0.793,0.793,0.793c0.397,0,0.793-0.297,0.793-0.793v-1.686
				C80.443,240.486,80.046,240.089,79.649,240.089z"/>
		</g>
		<g id="XMLID_180_">
			<path fill="#FFFFFF" d="M51.38,242.569c0,0.992-0.793,1.786-1.786,1.786l0,0c-0.992,0-1.785-0.793-1.785-1.786v-1.686
				c0-0.992,0.793-1.786,1.785-1.786l0,0c0.992,0,1.786,0.793,1.786,1.786V242.569z"/>
		</g>
		<g id="XMLID_70_">
			<path id="XMLID_1495_" fill="#0686D8" d="M49.694,245.247c-1.488,0-2.678-1.19-2.678-2.678v-1.686
				c0-1.488,1.19-2.678,2.678-2.678s2.678,1.19,2.678,2.678v1.686C52.372,244.057,51.182,245.247,49.694,245.247z M49.694,240.089
				c-0.397,0-0.793,0.297-0.793,0.793v1.686c0,0.397,0.297,0.793,0.793,0.793c0.396,0,0.793-0.297,0.793-0.793v-1.686
				C50.389,240.486,50.091,240.089,49.694,240.089z"/>
		</g>
		<g id="XMLID_68_">
			<path fill="#D2E9F7" d="M80.939,276.591v-2.579c0-8.729-7.142-15.97-15.97-15.97l0,0c-8.729,0-15.969,7.142-15.969,15.97v2.579
				H80.939z"/>
		</g>
		<g id="XMLID_214_">
			<path id="XMLID_1494_" fill="#0686D8" d="M81.931,276.591h-1.983v-2.579c0-8.233-6.745-14.978-14.978-14.978
				c-3.571,0-7.042,1.29-9.72,3.67l-1.29-1.488c3.075-2.678,6.943-4.067,11.01-4.067c9.324,0,16.961,7.638,16.961,16.961V276.591z"
				/>
		</g>
		<g id="XMLID_215_">
			<path id="XMLID_1493_" fill="#0686D8" d="M51.876,266.97l-1.786-0.893c0.496-0.893,1.091-1.786,1.786-2.678l1.587,1.19
				C52.868,265.383,52.273,266.176,51.876,266.97z"/>
		</g>
		<g id="XMLID_97_">
			<path id="XMLID_1492_" fill="#0686D8" d="M50.091,276.591h-1.984v-2.579c0-1.29,0.199-2.579,0.496-3.869l1.885,0.496
				c-0.298,1.091-0.397,2.281-0.397,3.373V276.591z"/>
		</g>
		<g id="XMLID_206_">
			<path fill="#FFFFFF" d="M64.771,264.49L64.771,264.49c-1.885,0-3.472-1.587-3.472-3.472v-7.34c0-1.885,1.587-3.472,3.472-3.472
				l0,0c1.885,0,3.472,1.587,3.472,3.472v7.34C68.243,262.903,66.656,264.49,64.771,264.49z"/>
		</g>
		<g id="XMLID_205_">
			<path id="XMLID_1489_" fill="#0686D8" d="M64.771,265.482c-2.479,0-4.463-1.984-4.463-4.463v-7.34
				c0-2.479,1.984-4.463,4.463-4.463c2.48,0,4.463,1.984,4.463,4.463v7.34C69.234,263.498,67.251,265.482,64.771,265.482z
				 M64.771,251.199c-1.389,0-2.479,1.091-2.479,2.479v7.34c0,1.389,1.091,2.479,2.479,2.479s2.48-1.091,2.48-2.479v-7.34
				C67.251,252.29,66.16,251.199,64.771,251.199z"/>
		</g>
		<g id="XMLID_204_">
			<path fill="#FFFFFF" d="M78.162,235.031v8.828c0,7.34-6.05,13.391-13.391,13.391l0,0c-7.34,0-13.391-6.051-13.391-13.391v-8.828
				c6.646,0,11.804-5.654,13.292-7.34c0.198-0.297,0.595-0.297,0.793,0C66.953,229.476,72.111,235.031,78.162,235.031z"/>
		</g>
		<g id="XMLID_202_">
			<path id="XMLID_1486_" fill="#0686D8" d="M64.771,258.241c-7.935,0-14.382-6.448-14.382-14.383v-9.82h0.992
				c6.15,0,11.109-5.356,12.498-7.042c0.297-0.297,0.694-0.595,1.19-0.595l0,0c0.496,0,0.893,0.199,1.19,0.496
				c1.389,1.686,6.348,7.042,11.903,7.042h0.992v9.82C79.154,251.793,72.706,258.241,64.771,258.241z M52.372,236.022v7.836
				c0,6.844,5.555,12.399,12.399,12.399s12.399-5.555,12.399-12.399v-7.836c-5.555-0.496-10.316-5.257-12.101-7.241
				C63.283,230.766,58.423,235.526,52.372,236.022z"/>
		</g>
		<g id="XMLID_192_">
			<path fill="#5FB0E5" d="M77.269,224.715l-3.77-4.265c-0.496-0.595-0.496-1.488,0.1-2.083l0,0
				c0.595-0.496,1.488-0.496,2.083,0.099l3.769,4.265c0.496,0.595,0.496,1.488-0.099,2.083l0,0
				C78.757,225.409,77.765,225.31,77.269,224.715z"/>
		</g>
		<g id="XMLID_185_">
			<path id="XMLID_1483_" fill="#0686D8" d="M78.36,226.203c-0.099,0-0.099,0-0.198,0c-0.694,0-1.29-0.297-1.686-0.793l0,0
				l-3.77-4.265c-0.396-0.496-0.595-1.091-0.595-1.786s0.297-1.29,0.793-1.686c0.992-0.893,2.579-0.793,3.472,0.198l3.769,4.265
				c0.397,0.496,0.595,1.091,0.595,1.786s-0.298,1.29-0.793,1.686C79.55,226.004,78.955,226.203,78.36,226.203z M78.062,224.021
				c0.099,0.099,0.198,0.198,0.297,0.198c0.1,0,0.199,0,0.298-0.099s0.198-0.198,0.198-0.297c0-0.1,0-0.199-0.099-0.298
				l-3.769-4.265c-0.199-0.198-0.496-0.198-0.694,0c-0.1,0.099-0.199,0.198-0.199,0.298c0,0.099,0,0.198,0.099,0.297L78.062,224.021
				z"/>
		</g>
		<g id="XMLID_54_">
			<polygon id="XMLID_1482_" fill="#0686D8" points="66.061,245.545 62.192,245.545 62.192,237.51 64.176,237.51 64.176,243.561 
				65.068,243.561 65.465,242.966 67.052,244.057 			"/>
		</g>
		<g id="XMLID_55_">
			<path id="XMLID_1481_" fill="#0686D8" d="M58.82,239.891c-0.893,0-1.786-0.396-2.381-0.992l1.389-1.389
				c0.496,0.496,1.389,0.496,1.984,0l1.389,1.389C60.605,239.593,59.712,239.891,58.82,239.891z"/>
		</g>
		<g id="XMLID_53_">
			<path id="XMLID_1480_" fill="#0686D8" d="M70.623,239.891c-0.893,0-1.785-0.396-2.38-0.992l1.389-1.389
				c0.496,0.496,1.389,0.496,1.984,0l1.389,1.389C72.31,239.593,71.516,239.891,70.623,239.891z"/>
		</g>
		<g id="XMLID_57_">
			<path id="XMLID_1479_" fill="#0686D8" d="M65.068,251.793c-1.785,0-3.571-0.496-4.86-1.389l1.091-1.686
				c1.984,1.29,5.555,1.29,7.539,0l1.091,1.686C68.64,251.298,66.854,251.793,65.068,251.793z"/>
		</g>
	</g>
</g>
<g id="XMLID_74_">
	<g id="XMLID_79_">
		<path fill="#5FB0E5" d="M171.896,552.042v-4.96c0-8.134-7.737-14.779-17.259-14.779l0,0c-9.522,0-17.259,6.646-17.259,14.779v4.86
			h34.518V552.042z"/>
	</g>
	<g id="XMLID_75_">
		<g id="XMLID_82_">
			<rect x="137.676" y="546.884" fill="#D2E9F7" width="34.22" height="3.075"/>
		</g>
	</g>
	<g id="XMLID_90_">
		<circle fill="#5FB0E5" cx="180.129" cy="534.485" r="0.893"/>
	</g>
	<g id="XMLID_89_">
		<circle fill="#5FB0E5" cx="169.417" cy="529.426" r="0.893"/>
	</g>
	<g id="XMLID_88_">
		<circle fill="#5FB0E5" cx="138.171" cy="528.534" r="0.893"/>
	</g>
	<g id="XMLID_87_">
		<circle fill="#5FB0E5" cx="178.74" cy="515.738" r="1.389"/>
	</g>
	<g id="XMLID_86_">
		<circle fill="#5FB0E5" cx="133.609" cy="512.068" r="1.786"/>
	</g>
	<g id="XMLID_85_">
		<circle fill="#5FB0E5" cx="130.236" cy="535.378" r="1.389"/>
	</g>
	<g id="XMLID_78_">
		<path id="XMLID_1478_" fill="#0686D8" d="M138.37,552.042h-1.885v-4.96c0-1.289,0.198-2.579,0.496-3.77l1.785,0.496
			c-0.297,1.092-0.496,2.183-0.496,3.273v4.96H138.37z"/>
	</g>
	<g id="XMLID_77_">
		<path id="XMLID_1477_" fill="#0686D8" d="M139.957,541.131l-1.587-0.893c0.893-1.488,1.984-2.877,3.372-4.166l1.19,1.389
			C141.742,538.552,140.75,539.841,139.957,541.131z"/>
	</g>
	<g id="XMLID_76_">
		<path id="XMLID_1476_" fill="#0686D8" d="M172.888,552.042h-1.885v-4.96c0-7.638-7.34-13.887-16.366-13.887
			c-3.373,0-6.546,0.893-9.324,2.48l-0.992-1.588c3.075-1.785,6.547-2.777,10.217-2.777c10.018,0,18.152,7.043,18.152,15.771v4.96
			H172.888z"/>
	</g>
	<g id="XMLID_123_">
		<path fill="#5FB0E5" d="M142.536,522.682h-0.397c-0.893,0-1.587-0.694-1.587-1.587l-0.595-16.862c0-1.786,0.793-2.281,2.281-3.373
			l1.984-1.587c-5.158-3.174-3.769-5.853-3.769-5.853c2.38,3.571,15.275,0.894,22.714,2.084c1.785,0.297,3.174,1.686,3.373,3.471
			l0.198,1.389l0,0c1.488,0,2.678-0.099,2.678,1.389l-0.595,19.343c0,0.893-0.694,1.587-1.587,1.587H142.536z"/>
	</g>
	<g id="XMLID_121_">
		<path id="XMLID_1473_" fill="#0686D8" d="M167.333,523.574h-25.194c-1.389,0-2.479-1.091-2.479-2.479l-0.595-16.862
			c0-2.183,1.29-4.166,3.273-5.158c-2.479-1.885-3.372-3.77-2.876-5.853l0.199-0.694l0.694-0.099h0.496l0.298,0.396
			c1.19,1.785,6.844,1.587,11.803,1.389c3.571-0.1,7.34-0.198,10.316,0.198c2.083,0.298,3.769,2.083,4.067,4.266l0.099,0.595
			c0.793,0,1.587,0.1,2.182,0.694c0.397,0.396,0.595,0.893,0.595,1.587l-0.595,19.441
			C169.714,522.483,168.623,523.574,167.333,523.574z M141.445,495.305c0.397,0.992,1.488,2.083,3.273,3.175l1.389,0.893
			l-2.976,1.389c-1.389,0.694-2.281,1.983-2.281,3.372l0.595,16.862c0,0.396,0.297,0.595,0.595,0.595h25.194
			c0.297,0,0.595-0.297,0.595-0.595l0.595-19.441c0-0.198,0-0.298,0-0.298c-0.099-0.099-0.893-0.099-1.388-0.099h-1.091
			l-0.297-2.183c-0.199-1.389-1.19-2.479-2.579-2.678c-2.777-0.396-6.447-0.298-9.919-0.198
			C148.289,496.297,144.024,496.495,141.445,495.305z"/>
	</g>
	<g id="XMLID_118_">
		<path fill="#FFFFFF" d="M154.439,539.146h-0.199c-1.785,0-3.273-1.487-3.273-3.272v-7.439c0-1.785,1.488-3.273,3.273-3.273h0.199
			c1.785,0,3.273,1.488,3.273,3.273v7.439C157.712,537.659,156.224,539.146,154.439,539.146z"/>
	</g>
	<g id="XMLID_117_">
		<path id="XMLID_1470_" fill="#0686D8" d="M154.439,540.04h-0.199c-2.281,0-4.166-1.885-4.166-4.166v-7.439
			c0-2.281,1.885-4.166,4.166-4.166h0.199c2.281,0,4.166,1.885,4.166,4.166v7.439C158.704,538.155,156.819,540.04,154.439,540.04z
			 M154.24,526.153c-1.29,0-2.281,1.091-2.281,2.281v7.439c0,1.289,1.091,2.281,2.281,2.281h0.199c1.289,0,2.38-1.091,2.38-2.281
			v-7.439c0-1.29-1.091-2.281-2.38-2.281H154.24z"/>
	</g>
	<g id="XMLID_116_">
		<path fill="#FFFFFF" d="M154.637,532.501L154.637,532.501c-7.042,0-12.895-5.753-12.895-12.895v-8.729
			c0-7.043,5.753-11.605,12.895-11.605l0,0c7.042,0,12.895,4.464,12.895,11.605v8.729
			C167.532,526.649,161.68,532.501,154.637,532.501z"/>
	</g>
	<g id="XMLID_113_">
		<path id="XMLID_1467_" fill="#0686D8" d="M154.637,533.394c-7.638,0-13.788-6.149-13.788-13.787v-8.729
			c0-7.241,5.853-12.498,13.788-12.498c8.034,0,13.787,5.257,13.787,12.498v8.729C168.424,527.244,162.275,533.394,154.637,533.394z
			 M154.637,500.165c-6.943,0-11.903,4.464-11.903,10.613v8.729c0,6.546,5.356,11.902,11.903,11.902s11.903-5.356,11.903-11.902
			v-8.729C166.54,504.728,161.581,500.165,154.637,500.165z"/>
	</g>
	<g id="XMLID_110_">
		<path fill="#5FB0E5" d="M168.226,502.248l-3.373-1.389c0.298-0.297-0.198-0.793,0-1.289c1.091-3.174-5.059-1.885-5.059-1.885
			s-7.142-2.976-15.275,3.174l-4.066,6.051c0,0,11.803,3.372,21.227-4.959c0.099,2.578,0.694,6.248,6.546,7.438v-4.661V502.248z"/>
	</g>
	<g id="XMLID_108_">
		<path id="XMLID_1466_" fill="#0686D8" d="M168.524,510.481c-5.356-1.092-7.042-4.266-7.638-6.845
			c-9.522,7.142-20.632,3.968-21.127,3.77l0.496-1.785c0.1,0,11.605,3.272,20.533-4.364l0.396-0.397l0.694,0.198
			c0.397,0.199,0.595,0.496,0.595,0.894c0.099,2.38,1.29,5.555,6.348,6.546L168.524,510.481z"/>
	</g>
	<g id="XMLID_107_">
		<path id="XMLID_1463_" fill="#0686D8" d="M150.669,519.11h-6.348c-1.885,0-3.472-1.487-3.472-3.472v-2.876
			c0-1.885,1.488-3.472,3.472-3.472h6.348c1.885,0,3.472,1.487,3.472,3.472v2.876C154.141,517.623,152.554,519.11,150.669,519.11z
			 M144.321,511.274c-0.893,0-1.587,0.694-1.587,1.587v2.877c0,0.893,0.694,1.587,1.587,1.587h6.348
			c0.893,0,1.587-0.694,1.587-1.587v-2.877c0-0.893-0.694-1.587-1.587-1.587H144.321z"/>
	</g>
	<g id="XMLID_106_">
		<path id="XMLID_1460_" fill="#0686D8" d="M164.854,519.11h-6.348c-1.884,0-3.472-1.487-3.472-3.472v-2.876
			c0-1.885,1.488-3.472,3.472-3.472h6.348c1.885,0,3.472,1.487,3.472,3.472v2.876C168.325,517.623,166.738,519.11,164.854,519.11z
			 M158.505,511.274c-0.893,0-1.587,0.694-1.587,1.587v2.877c0,0.893,0.694,1.587,1.587,1.587h6.348
			c0.893,0,1.587-0.694,1.587-1.587v-2.877c0-0.893-0.694-1.587-1.587-1.587H158.505z"/>
	</g>
	<g id="XMLID_103_">
		<rect id="XMLID_1459_" x="153.149" y="513.357" fill="#0686D8" width="2.479" height="1.885"/>
	</g>
	<g id="XMLID_58_">
		<rect id="XMLID_1458_" x="146.206" y="513.357" fill="#0686D8" width="2.579" height="1.885"/>
	</g>
	<g id="XMLID_56_">
		<rect id="XMLID_1457_" x="160.39" y="513.357" fill="#0686D8" width="2.579" height="1.885"/>
	</g>
	<g id="XMLID_60_">
		<polygon id="XMLID_1456_" fill="#0686D8" points="157.712,524.169 153.844,524.169 153.844,515.242 155.629,515.242 
			155.629,522.284 157.712,522.284 		"/>
	</g>
	<g id="XMLID_62_">
		<polygon id="XMLID_1455_" fill="#0686D8" points="158.604,528.236 150.967,528.236 150.967,526.352 157.91,526.352 
			159.795,524.863 160.985,526.252 		"/>
	</g>
</g>
<g id="XMLID_248_">
	<g id="XMLID_225_">
		<path fill="#D2E9F7" d="M460.737,517.623v-7.142c0-9.522-7.737-17.26-17.259-17.26l0,0c-9.522,0-17.26,7.737-17.26,17.26v13.489
			h28.071C457.86,523.971,460.737,521.095,460.737,517.623z"/>
	</g>
	<g id="XMLID_262_">
		<circle fill="#5FB0E5" cx="461.531" cy="536.667" r="0.992"/>
	</g>
	<g id="XMLID_261_">
		<circle fill="#5FB0E5" cx="426.517" cy="532.898" r="0.992"/>
	</g>
	<g id="XMLID_260_">
		<circle fill="#5FB0E5" cx="470.26" cy="516.83" r="1.29"/>
	</g>
	<g id="XMLID_259_">
		<circle fill="#5FB0E5" cx="419.673" cy="545.396" r="1.29"/>
	</g>
	<g id="XMLID_258_">
		<circle fill="#5FB0E5" cx="470.26" cy="544.106" r="1.785"/>
	</g>
	<g id="XMLID_257_">
		<circle fill="#5FB0E5" cx="419.673" cy="512.663" r="1.785"/>
	</g>
	<g id="XMLID_247_">
		<path fill="#5FB0E5" d="M460.143,551.744v-2.678c0-8.928-7.341-16.268-16.268-16.268l0,0c-8.927,0-16.268,7.34-16.268,16.268
			v2.678H460.143z"/>
	</g>
	<g id="XMLID_246_">
		<path id="XMLID_1366_" fill="#0686D8" d="M461.134,551.744h-1.983v-2.678c0-8.432-6.844-15.177-15.176-15.177
			c-3.671,0-7.143,1.29-9.919,3.67l-1.29-1.487c3.174-2.679,7.142-4.166,11.209-4.166c9.521,0,17.259,7.736,17.259,17.259v2.579
			H461.134z"/>
	</g>
	<g id="XMLID_245_">
		<path id="XMLID_1365_" fill="#0686D8" d="M430.484,541.924l-1.785-0.991c0.496-0.992,1.091-1.885,1.785-2.679l1.587,1.29
			C431.477,540.337,430.881,541.131,430.484,541.924z"/>
	</g>
	<g id="XMLID_244_">
		<path id="XMLID_1364_" fill="#0686D8" d="M428.699,551.744h-1.984v-2.678c0-1.29,0.198-2.679,0.496-3.968l1.984,0.495
			c-0.298,1.092-0.397,2.282-0.397,3.473v2.678H428.699z"/>
	</g>
	<g id="XMLID_240_">
		<path fill="#FFFFFF" d="M443.577,539.444L443.577,539.444c-1.983,0-3.57-1.587-3.57-3.57v-7.439c0-1.984,1.587-3.571,3.57-3.571
			l0,0c1.984,0,3.571,1.587,3.571,3.571v7.439C447.148,537.857,445.562,539.444,443.577,539.444z"/>
	</g>
	<g id="XMLID_238_">
		<path id="XMLID_1361_" fill="#0686D8" d="M443.577,540.437c-2.479,0-4.562-2.083-4.562-4.562v-7.439
			c0-2.479,2.083-4.562,4.562-4.562c2.48,0,4.563,2.083,4.563,4.562v7.439C448.141,538.354,446.156,540.437,443.577,540.437z
			 M443.577,525.855c-1.389,0-2.579,1.091-2.579,2.579v7.439c0,1.389,1.092,2.578,2.579,2.578c1.488,0,2.579-1.091,2.579-2.578
			v-7.439C446.156,527.046,444.966,525.855,443.577,525.855z"/>
	</g>
	<g id="XMLID_222_">
		<path fill="#FFFFFF" d="M457.266,502.942v14.978c0,7.539-6.149,13.688-13.688,13.688l0,0c-7.538,0-13.688-6.149-13.688-13.688
			v-14.978H457.266L457.266,502.942z"/>
	</g>
	<g id="XMLID_223_">
		<path id="XMLID_1360_" fill="#0686D8" d="M443.577,532.501c-8.034,0-14.68-6.546-14.68-14.68v-8.233h1.983v8.233
			c0,6.943,5.654,12.597,12.598,12.597s12.597-5.653,12.597-12.597V506.91h1.984v10.911
			C458.258,525.955,451.711,532.501,443.577,532.501z"/>
	</g>
	<g id="XMLID_236_">
		<path fill="#D2E9F7" d="M458.952,510.778h-4.96c-4.562,0.1-10.415-4.959-10.415-7.935v2.479v6.447
			c0,9.621-7.736,17.358-17.358,17.457l0,0l0.694-18.647l2.579-8.53l28.368-0.694l0.894,4.066v5.356H458.952z"/>
	</g>
	<g id="XMLID_235_">
		<path id="XMLID_1359_" fill="#0686D8" d="M426.219,530.021v-1.983c9.026,0,16.367-7.439,16.367-16.466v-11.308h1.983
			c0,5.157,4.266,9.423,9.423,9.423h4.96v1.983h-4.96c-3.868,0-7.34-1.983-9.423-4.959v4.86
			C444.569,521.789,436.337,530.021,426.219,530.021z"/>
	</g>
	<g id="XMLID_237_">
		<path id="XMLID_1358_" fill="#0686D8" d="M427.211,529.922h-1.983v-19.44c0-10.118,8.232-18.251,18.251-18.251
			c10.117,0,18.251,8.232,18.251,18.251v7.142c0,3.372-2.281,6.348-5.654,7.24l-0.496-1.983c2.381-0.595,4.067-2.777,4.067-5.257
			v-7.142c0-8.928-7.241-16.268-16.268-16.268c-8.927,0-16.267,7.241-16.267,16.268v19.44H427.211z"/>
	</g>
	<g id="XMLID_249_">
		<rect id="XMLID_1357_" x="446.256" y="513.655" fill="#0686D8" width="5.555" height="1.983"/>
	</g>
	<g id="XMLID_224_">
		<polygon id="XMLID_1356_" fill="#0686D8" points="446.652,521.987 443.577,521.987 443.577,520.003 444.569,520.003 
			444.569,517.127 446.652,517.127 		"/>
	</g>
	<g id="XMLID_250_">
		<path id="XMLID_1355_" fill="#0686D8" d="M444.271,527.641h-0.793c-1.092,0-2.183-0.396-3.075-1.19l-0.198-0.198l1.289-1.487
			l0.198,0.198c0.496,0.396,1.092,0.694,1.786,0.694h0.793c0.694,0,1.389-0.298,1.885-0.794l1.389,1.389
			C446.752,527.145,445.562,527.641,444.271,527.641z"/>
	</g>
	<g id="XMLID_233_">
		<path id="XMLID_1354_" fill="#0686D8" d="M426.715,525.855l-0.793-1.885c6.051-2.579,9.919-8.53,9.919-15.077h1.983
			C437.924,516.333,433.46,522.979,426.715,525.855z"/>
	</g>
	<g id="XMLID_251_">
		<path id="XMLID_1353_" fill="#0686D8" d="M426.318,521.095l-1.19-1.587c4.166-3.075,6.646-8.035,6.646-13.192h1.984
			C433.856,512.068,431.079,517.623,426.318,521.095z"/>
	</g>
</g>
<g id="XMLID_503_">
	<g id="XMLID_558_">
		<path fill="#5FB0E5" d="M518.466,243.561l-0.595,2.281c-1.389,4.86-0.794,10.117,1.686,14.581l2.281,4.166l9.324-1.885
			c0,0,2.183-14.184,1.389-13.887C531.758,249.116,518.466,243.561,518.466,243.561z"/>
	</g>
	<g id="XMLID_557_">
		<path id="XMLID_1159_" fill="#0686D8" d="M521.144,265.68l-2.578-4.86c-2.579-4.761-3.175-10.117-1.687-15.275l0.893-3.373
			l1.091,0.396c5.753,2.381,12.2,4.86,13.49,5.158l0.298-0.099l0.495,0.396c0.496,0.397,0.992,0.793-1.091,14.779l-0.099,0.694
			L521.144,265.68z M519.16,244.95l-0.298,1.091c-1.289,4.662-0.694,9.522,1.587,13.788l1.885,3.472l7.936-1.587
			c0.793-4.96,1.389-10.316,1.488-12.102C530.17,249.314,526.896,248.124,519.16,244.95z"/>
	</g>
	<g id="XMLID_561_">
		<path fill="#5FB0E5" d="M546.338,243.561l0.596,2.281c1.389,4.86,0.793,10.117-1.687,14.581l-2.281,4.166l-9.324-1.885
			c0,0-2.182-14.184-1.389-13.887C533.047,249.116,546.338,243.561,546.338,243.561z"/>
	</g>
	<g id="XMLID_560_">
		<path id="XMLID_1156_" fill="#0686D8" d="M543.66,265.68l-10.812-2.182l-0.1-0.694c-2.182-13.986-1.587-14.382-1.091-14.779
			l0.496-0.396l0.396,0.099c1.289-0.199,7.737-2.777,13.49-5.158l1.091-0.396l0.893,3.373c1.389,5.158,0.794,10.613-1.687,15.275
			L543.66,265.68z M534.634,261.812l7.936,1.587l1.884-3.472c2.282-4.265,2.877-9.125,1.588-13.788l-0.298-1.091
			c-7.836,3.273-11.109,4.364-12.498,4.761C533.245,251.397,533.84,256.753,534.634,261.812z"/>
	</g>
	<g id="XMLID_508_">
		<path fill="#D2E9F7" d="M549.017,277.087v-2.678c0-9.126-7.439-16.565-16.565-16.565l0,0c-9.125,0-16.564,7.439-16.564,16.565
			v2.678H549.017z"/>
	</g>
	<g id="XMLID_527_">
		<path fill="#9ECFEF" d="M516.978,268.656v8.431h1.786v-11.903C518.069,266.176,517.474,267.366,516.978,268.656z"/>
	</g>
	<g id="XMLID_529_">
		<path fill="#9ECFEF" d="M520.549,263.002v14.085h1.785v-15.672C521.64,261.911,521.045,262.407,520.549,263.002z"/>
	</g>
	<g id="XMLID_519_">
		<rect x="524.021" y="259.729" fill="#9ECFEF" width="1.785" height="17.358"/>
	</g>
	<g id="XMLID_520_">
		<rect x="527.492" y="261.019" fill="#9ECFEF" width="1.785" height="16.068"/>
	</g>
	<g id="XMLID_521_">
		<rect x="531.062" y="261.019" fill="#9ECFEF" width="1.786" height="16.068"/>
	</g>
	<g id="XMLID_522_">
		<rect x="534.534" y="261.019" fill="#9ECFEF" width="1.786" height="16.068"/>
	</g>
	<g id="XMLID_524_">
		<rect x="538.006" y="259.134" fill="#9ECFEF" width="1.786" height="17.953"/>
	</g>
	<g id="XMLID_525_">
		<rect x="541.577" y="261.019" fill="#9ECFEF" width="1.785" height="16.068"/>
	</g>
	<g id="XMLID_526_">
		<rect x="545.049" y="264.49" fill="#9ECFEF" width="1.785" height="12.597"/>
	</g>
	<g id="XMLID_551_">
		<path fill="#FFFFFF" d="M549.313,242.073c0,0.992-0.793,1.785-1.785,1.785l0,0c-0.992,0-1.785-0.793-1.785-1.785v-1.786
			c0-0.992,0.793-1.786,1.785-1.786l0,0c0.992,0,1.785,0.794,1.785,1.786V242.073z"/>
	</g>
	<g id="XMLID_550_">
		<path id="XMLID_1153_" fill="#0686D8" d="M547.528,244.851c-1.587,0-2.876-1.29-2.876-2.877v-1.785
			c0-1.587,1.289-2.876,2.876-2.876s2.877,1.29,2.877,2.876v1.785C550.306,243.66,549.017,244.851,547.528,244.851z
			 M547.528,239.494c-0.396,0-0.793,0.396-0.793,0.793v1.786c0,0.396,0.396,0.793,0.793,0.793c0.397,0,0.794-0.397,0.794-0.793
			v-1.786C548.223,239.891,547.926,239.494,547.528,239.494z"/>
	</g>
	<g id="XMLID_556_">
		<path fill="#FFFFFF" d="M519.16,242.073c0,0.992-0.793,1.785-1.785,1.785l0,0c-0.992,0-1.785-0.793-1.785-1.785v-1.786
			c0-0.992,0.793-1.786,1.785-1.786l0,0c0.992,0,1.785,0.794,1.785,1.786V242.073z"/>
	</g>
	<g id="XMLID_498_">
		<path id="XMLID_1150_" fill="#0686D8" d="M517.375,244.851c-1.587,0-2.877-1.29-2.877-2.877v-1.785
			c0-1.587,1.29-2.876,2.877-2.876s2.876,1.29,2.876,2.876v1.785C520.251,243.66,518.962,244.851,517.375,244.851z M517.375,239.494
			c-0.397,0-0.794,0.396-0.794,0.793v1.786c0,0.396,0.396,0.793,0.794,0.793c0.396,0,0.793-0.397,0.793-0.793v-1.786
			C518.168,239.891,517.871,239.494,517.375,239.494z"/>
	</g>
	<g id="XMLID_478_">
		<path fill="#5FB0E5" d="M546.14,241.379v-9.225c0-7.439-6.149-13.589-13.589-13.589h-0.694c-7.439,0-13.589,6.15-13.589,13.589
			v9.225H546.14z"/>
	</g>
	<g id="XMLID_517_">
		<circle fill="#5FB0E5" cx="550.504" cy="259.729" r="0.992"/>
	</g>
	<g id="XMLID_513_">
		<circle fill="#5FB0E5" cx="514.696" cy="257.844" r="0.992"/>
	</g>
	<g id="XMLID_512_">
		<circle fill="#5FB0E5" cx="558.142" cy="243.858" r="1.29"/>
	</g>
	<g id="XMLID_511_">
		<circle fill="#5FB0E5" cx="507.853" cy="270.541" r="1.29"/>
	</g>
	<g id="XMLID_510_">
		<circle fill="#5FB0E5" cx="559.432" cy="269.251" r="1.885"/>
	</g>
	<g id="XMLID_509_">
		<circle fill="#5FB0E5" cx="507.853" cy="237.213" r="1.885"/>
	</g>
	<g id="XMLID_507_">
		<path id="XMLID_1149_" fill="#0686D8" d="M550.107,277.087h-2.083v-2.678c0-8.531-6.943-15.573-15.573-15.573
			c-3.67,0-7.34,1.389-10.117,3.77l-1.389-1.587c3.174-2.777,7.241-4.266,11.407-4.266c9.721,0,17.557,7.936,17.557,17.557v2.777
			H550.107z"/>
	</g>
	<g id="XMLID_506_">
		<path id="XMLID_1148_" fill="#0686D8" d="M518.764,267.069l-1.786-0.992c0.496-0.992,1.092-1.885,1.786-2.777l1.587,1.29
			C519.755,265.383,519.26,266.275,518.764,267.069z"/>
	</g>
	<g id="XMLID_505_">
		<path id="XMLID_1147_" fill="#0686D8" d="M516.978,277.087h-2.083v-2.678c0-1.389,0.199-2.678,0.496-4.067l1.984,0.496
			c-0.298,1.19-0.397,2.381-0.397,3.571V277.087z"/>
	</g>
	<g id="XMLID_500_">
		<path fill="#FFFFFF" d="M535.824,260.919v-7.638c0-1.983-1.587-3.571-3.571-3.571l0,0c-1.983,0-3.57,1.587-3.57,3.571v7.638
			l3.57,5.257L535.824,260.919z"/>
	</g>
	<g id="XMLID_493_">
		<path id="XMLID_1144_" fill="#0686D8" d="M532.253,267.961l-4.662-6.745v-7.936c0-2.579,2.083-4.662,4.662-4.662
			s4.662,2.083,4.662,4.662v7.936L532.253,267.961z M529.575,260.622l2.579,3.769l2.579-3.769v-7.34c0-1.388-1.19-2.579-2.579-2.579
			s-2.579,1.19-2.579,2.579V260.622z"/>
	</g>
	<g id="XMLID_502_">
		<path fill="#FFFFFF" d="M546.14,236.816v5.654c0,7.638-6.249,13.887-13.887,13.887l0,0c-7.638,0-13.887-6.249-13.887-13.887
			v-5.654l9.324-3.472c0.198,0,1.785-1.488,1.983-1.686l2.579-5.753l1.29,1.488c1.885,3.967,3.868,6.447,6.149,6.646L546.14,236.816
			z"/>
	</g>
	<g id="XMLID_501_">
		<path id="XMLID_1143_" fill="#0686D8" d="M532.253,257.447c-8.232,0-14.978-6.745-14.978-14.978v-8.431h2.083v8.431
			c0,7.142,5.753,12.895,12.895,12.895s12.895-5.753,12.895-12.895V231.36h2.083v11.208
			C547.132,250.802,540.486,257.447,532.253,257.447z"/>
	</g>
	<g id="XMLID_494_">
		<polygon id="XMLID_1142_" fill="#0686D8" points="534.634,246.537 531.46,246.537 531.46,244.454 532.551,244.454 
			532.551,237.411 534.634,237.411 		"/>
	</g>
	<g id="XMLID_491_">
		<path id="XMLID_1141_" fill="#0686D8" d="M547.132,241.379h-2.083v-9.225c0-6.943-5.654-12.498-12.498-12.498h-0.694
			c-6.943,0-12.498,5.654-12.498,12.498v9.225h-2.083v-9.225c0-8.035,6.547-14.581,14.581-14.581h0.694
			c8.034,0,14.581,6.546,14.581,14.581V241.379L547.132,241.379z"/>
	</g>
	<g id="XMLID_492_">
		<path id="XMLID_1140_" fill="#0686D8" d="M519.16,237.808l-0.793-1.884l6.546-2.678c3.67-1.488,6.051-5.059,6.051-9.026h2.083
			c0,4.761-2.877,9.125-7.34,10.911L519.16,237.808z"/>
	</g>
	<g id="XMLID_499_">
		<path id="XMLID_1139_" fill="#0686D8" d="M545.247,237.808l-6.547-2.678c-4.463-1.885-7.34-6.15-7.34-10.911h2.083
			c0,3.968,2.381,7.539,6.051,9.026l6.547,2.678L545.247,237.808z"/>
	</g>
	<g id="XMLID_559_">
		<path id="XMLID_1138_" fill="#0686D8" d="M537.808,239.99c-1.091,0-2.083-0.397-2.876-1.19l1.487-1.488
			c0.694,0.694,1.984,0.694,2.777,0l1.488,1.488C539.891,239.593,538.898,239.99,537.808,239.99z"/>
	</g>
	<g id="XMLID_495_">
		<path id="XMLID_1137_" fill="#0686D8" d="M526.896,239.99c-1.091,0-2.082-0.397-2.876-1.19l1.487-1.488
			c0.695,0.694,1.984,0.694,2.777,0l1.488,1.488C528.98,239.593,527.988,239.99,526.896,239.99z"/>
	</g>
	<g id="XMLID_562_">
		<polygon id="XMLID_1136_" fill="#0686D8" points="536.717,251.694 527.69,251.694 525.905,249.314 527.492,248.124 
			528.683,249.71 535.824,249.71 537.411,248.024 538.898,249.413 		"/>
	</g>
</g>
<g>
	<path fill-rule="evenodd" clip-rule="evenodd" fill="#FFFFFF" d="M262.773,330.043c-0.342-0.354-0.514-0.941-0.514-1.763v-6.163
		h3.836v-4.622h-3.836v-6.608h-4.964v6.608h-2.259v4.622h2.259v6.916c0,4.108,1.986,6.163,5.958,6.163c0.981,0,1.815-0.08,2.5-0.239
		v-4.521c-0.595,0.092-1.027,0.137-1.301,0.137C263.675,330.573,263.116,330.397,262.773,330.043z"/>
	<path fill-rule="evenodd" clip-rule="evenodd" fill="#FFFFFF" d="M318.115,317.495h-5.923l-5.685,6.573v-13.182h-5.102v13.184
		c-0.303-1.732-1.073-3.235-2.316-4.505c-1.644-1.677-3.778-2.516-6.403-2.516c-2.717,0-4.953,0.827-6.711,2.482
		c-1.019,0.959-1.732,2.102-2.161,3.418c-0.398-1.267-1.072-2.397-2.039-3.385c-1.644-1.677-3.778-2.516-6.403-2.516
		c-2.716,0-4.953,0.827-6.71,2.482c-1.758,1.654-2.637,3.841-2.637,6.557v0.137c0,2.693,0.868,4.857,2.602,6.488
		c1.734,1.633,4.018,2.447,6.848,2.447c2.922,0,5.398-1.049,7.43-3.148l-2.979-2.843c-1.187,1.119-2.591,1.678-4.211,1.678
		c-1.347,0-2.437-0.308-3.27-0.925c-0.833-0.615-1.272-1.438-1.318-2.465h12.286c0.23,2.127,1.067,3.882,2.528,5.256
		c1.734,1.633,4.018,2.447,6.848,2.447c2.921,0,5.397-1.049,7.429-3.148l-2.978-2.843c-1.187,1.119-2.591,1.678-4.211,1.678
		c-1.347,0-2.437-0.308-3.27-0.925c-0.834-0.615-1.273-1.438-1.318-2.465h12.964v7.293h5.102v-4.816l1.42-1.537l5.018,6.354h5.752
		l-7.463-9.45L318.115,317.495z M271.196,324.137c0.069-0.799,0.502-1.478,1.301-2.037c0.799-0.559,1.758-0.839,2.876-0.839
		c1.027,0,1.906,0.28,2.637,0.839c0.73,0.56,1.095,1.238,1.095,2.037H271.196z M288.51,324.137c0.069-0.799,0.502-1.478,1.302-2.037
		c0.799-0.559,1.756-0.839,2.875-0.839c1.027,0,1.906,0.28,2.637,0.839c0.73,0.56,1.095,1.238,1.095,2.037H288.51z"/>
	<rect x="318.822" y="336.207" fill-rule="evenodd" clip-rule="evenodd" fill="#FFFFFF" width="10.646" height="1.854"/>
	<polygon fill-rule="evenodd" clip-rule="evenodd" fill="#FFFFFF" points="338.705,317.495 326.754,331.396 321.941,325.301 
		318.635,328.397 323.652,334.751 329.381,334.751 329.404,334.769 344.984,317.495 	"/>
</g>
</svg>
