<?xml version="1.0" standalone="no"?>
<!DOCTYPE svg PUBLIC "-//W3C//DTD SVG 20010904//EN"
 "http://www.w3.org/TR/2001/REC-SVG-20010904/DTD/svg10.dtd">
<svg version="1.0" xmlns="http://www.w3.org/2000/svg"
 width="400.000000pt" height="400.000000pt" viewBox="0 0 400.000000 400.000000"
 preserveAspectRatio="xMidYMid meet">
<metadata>
Created by potrace 1.11, written by Peter Selinger 2001-2013
</metadata>
<g transform="translate(0.000000,400.000000) scale(0.100000,-0.100000)"
fill="#000000" stroke="none">
<path d="M238 2513 c0 -5 -2 -60 -3 -123 -2 -63 -3 -122 -4 -130 -1 -11 -12
-15 -46 -14 l-45 1 0 -98 0 -99 48 0 47 0 -1 -162 c0 -89 4 -182 9 -207 22
-103 93 -160 208 -169 37 -2 84 -1 103 2 l37 7 -3 90 -3 91 -53 2 c-84 5 -87
10 -90 191 l-2 155 79 0 79 0 4 69 c2 38 1 82 -2 97 -5 29 -6 29 -80 30 l-75
0 -2 85 c0 46 -2 108 -2 137 l-1 52 -100 0 c-55 0 -101 -3 -102 -7z"/>
<path d="M2072 2268 c0 -139 -1 -255 -2 -258 0 -3 -11 18 -24 46 -64 137 -183
208 -346 206 -149 -2 -281 -77 -340 -191 l-21 -42 -25 48 c-65 122 -176 185
-329 185 -166 0 -289 -73 -354 -212 -23 -49 -26 -67 -26 -170 0 -105 3 -119
27 -166 69 -132 193 -202 359 -202 111 0 206 34 284 103 l29 26 -62 59 -62 60
-36 -25 c-50 -34 -109 -48 -172 -42 -81 8 -138 51 -157 115 l-6 22 257 -2 257
-3 13 -53 c17 -67 34 -98 77 -144 135 -141 388 -157 555 -35 28 21 52 42 52
46 0 4 -27 33 -60 64 l-59 57 -37 -25 c-121 -82 -307 -40 -329 74 l-4 21 272
-2 272 -3 -2 -147 c-3 -142 -2 -148 17 -148 11 -1 54 -1 95 -1 41 0 81 0 89 1
10 0 13 22 12 96 -1 94 0 97 30 131 l31 34 97 -125 c53 -69 102 -128 108 -132
11 -7 226 -9 233 -3 2 3 -63 89 -146 193 -82 104 -149 192 -149 197 0 4 6 14
13 21 6 7 44 49 82 93 66 76 112 127 163 183 12 14 22 26 22 27 0 0 -56 1
-124 1 l-125 -1 -47 -55 c-25 -30 -54 -62 -63 -71 -9 -9 -38 -44 -66 -77 -27
-34 -52 -57 -55 -52 -3 4 -5 126 -4 269 l0 261 -106 0 -107 0 -1 -252z m-1012
-196 c40 -18 79 -59 80 -84 0 -16 -14 -18 -164 -18 -156 0 -164 1 -159 19 7
29 56 71 99 86 50 18 100 16 144 -3z m704 7 c46 -13 96 -59 96 -88 0 -20 -5
-21 -160 -21 -178 0 -184 3 -132 60 46 52 120 70 196 49z"/>
<path d="M3633 2243 c-6 -2 -62 -63 -125 -136 -62 -73 -115 -134 -118 -137 -3
-3 -45 -52 -94 -110 -49 -58 -107 -124 -129 -147 l-39 -41 -100 125 -100 125
-56 -53 c-30 -30 -61 -59 -68 -65 -13 -12 -11 -16 59 -104 39 -50 131 -166
133 -169 2 -2 58 -3 126 -3 l123 1 33 38 c19 21 68 76 110 122 43 46 85 93 94
103 20 23 135 151 169 189 13 14 62 68 109 119 47 51 95 105 108 118 12 14 22
26 22 26 0 4 -246 2 -257 -1z"/>
<path d="M2800 1430 l0 -40 222 2 222 3 1 35 0 35 -223 3 -222 2 0 -40z"/>
</g>
</svg>
