<?xml version="1.0" encoding="utf-8"?>
<!-- Generator: Adobe Illustrator 16.0.0, SVG Export Plug-In . SVG Version: 6.00 Build 0)  -->
<!DOCTYPE svg PUBLIC "-//W3C//DTD SVG 1.1//EN" "http://www.w3.org/Graphics/SVG/1.1/DTD/svg11.dtd">
<svg version="1.1" id="Layer_1" xmlns="http://www.w3.org/2000/svg" xmlns:xlink="http://www.w3.org/1999/xlink" x="0px" y="0px"
	 width="600px" height="309.879px" viewBox="0 145.061 600 309.879" enable-background="new 0 145.061 600 309.879"
	 xml:space="preserve">
<g id="File_Sharing">
	<g>
		<g>
			<path fill="#D2E9F7" d="M70.084,244.175L70.084,244.175c0,9.04,7.362,16.402,16.402,16.402h79.87
				c7.502,0,13.56,6.058,13.56,13.56l0,0c-0.046,7.456-6.104,13.514-13.56,13.514H27.772c-11.51,0-20.876,9.32-20.876,20.876l0,0
				c0,11.51,9.32,20.876,20.876,20.876h66.31c9.133,0,16.542,7.409,16.542,16.542l0,0c0,9.134-7.409,16.543-16.542,16.543h-4.613
				c-15.797,0-28.565,12.768-28.565,28.564l0,0c0,15.797,12.768,28.565,28.565,28.565h349.44c10.392,0,18.826-8.435,18.826-18.826
				l0,0c0-10.392-8.435-18.825-18.826-18.825h-10.064c-7.969,0-14.446-6.478-14.446-14.445l0,0c0-7.969,6.478-14.446,14.446-14.446
				h78.704c11.044,0,20.037-8.946,20.037-20.037l0,0c0-11.044-8.946-20.037-20.037-20.037h-58.946
				c-9.833,0-17.801-7.968-17.801-17.801l0,0c0-9.832,7.968-17.8,17.801-17.8H575.21c13.7,0,24.79-11.09,24.79-24.791l0,0
				c0-13.7-11.091-24.79-24.79-24.79H86.44C77.4,227.772,70.084,235.088,70.084,244.175z"/>
		</g>
		<g id="XMLID_584_">
			<circle fill="#5FB0E5" cx="174.511" cy="161.277" r="1.491"/>
		</g>
		<g id="XMLID_21_">
			<circle fill="#5FB0E5" cx="458.9" cy="368.872" r="1.491"/>
		</g>
		<g id="XMLID_25_">
			<circle fill="#5FB0E5" cx="566.962" cy="302.843" r="1.491"/>
		</g>
		<g id="XMLID_32_">
			<circle fill="#5FB0E5" cx="117.708" cy="277.307" r="1.491"/>
		</g>
		<g id="XMLID_13_">
			<circle fill="#5FB0E5" cx="467.801" cy="299.208" r="1.445"/>
		</g>
		<g id="XMLID_16_">
			<circle fill="#5FB0E5" cx="297.437" cy="196.086" r="2.889"/>
		</g>
		<g id="XMLID_22_">
			<circle fill="#5FB0E5" cx="105.219" cy="196.086" r="2.097"/>
		</g>
		<g id="XMLID_276_">
			<circle fill="#5FB0E5" cx="2.097" cy="366.356" r="2.097"/>
		</g>
		<g id="XMLID_24_">
			<circle fill="#5FB0E5" cx="179.963" cy="206.57" r="2.516"/>
		</g>
		<g id="XMLID_17_">
			<path fill="#5FB0E5" d="M330.103,157.409c-2.609,0.699-3.169,1.258-3.821,3.821c-0.699-2.609-1.258-3.168-3.821-3.821
				c2.61-0.699,3.169-1.258,3.821-3.821C326.934,156.198,327.493,156.757,330.103,157.409z"/>
		</g>
		<g id="XMLID_23_">
			<path fill="#5FB0E5" d="M553.309,354.055c-2.423,0.652-2.936,1.164-3.588,3.588c-0.652-2.424-1.165-2.936-3.588-3.588
				c2.423-0.652,2.936-1.166,3.588-3.589C550.373,352.889,550.886,353.402,553.309,354.055z"/>
		</g>
		<g id="XMLID_18_">
			<path fill="#5FB0E5" d="M85.834,350.885c-3.168,0.84-3.868,1.538-4.707,4.707c-0.838-3.169-1.538-3.867-4.706-4.707
				c3.168-0.838,3.868-1.537,4.706-4.706C82.013,349.348,82.666,350,85.834,350.885z"/>
		</g>
		<g id="XMLID_29_">
			<path fill="#5FB0E5" d="M508.667,292.73c-4.007,1.072-4.846,1.911-5.918,5.918c-1.071-4.007-1.91-4.846-5.918-5.918
				c4.008-1.072,4.847-1.91,5.918-5.918C503.821,290.82,504.66,291.706,508.667,292.73z"/>
		</g>
		<g id="XMLID_28_">
			<path fill="#5FB0E5" d="M432.525,186.253c-3.168,0.839-3.867,1.538-4.706,4.707c-0.839-3.169-1.538-3.868-4.706-4.707
				c3.168-0.839,3.867-1.538,4.706-4.707C428.658,184.716,429.357,185.415,432.525,186.253z"/>
		</g>
		<g id="XMLID_19_">
			<path fill="#5FB0E5" d="M53.961,257.223c-3.309,0.885-4.007,1.584-4.893,4.893c-0.885-3.309-1.584-4.008-4.893-4.893
				c3.309-0.885,4.007-1.584,4.893-4.893C49.954,255.638,50.652,256.337,53.961,257.223z"/>
		</g>
	</g>
	<circle id="Background_2" fill="#D2E9F7" cx="278.146" cy="300" r="154.939"/>
</g>
<circle fill="#F6F9FC" cx="277" cy="300" r="134.43"/>
<g id="Layer_2">
</g>
<g id="Layer_2_2_">
	<path fill="#E6FBF5" d="M220.414,356.989v-86.194h131.508v86.154c0,2.495-2.06,4.516-4.515,4.516H224.969
		C222.474,361.505,220.414,359.485,220.414,356.989"/>
	<path fill="#82EBCD" d="M220.414,270.795v-18.142c0-2.495,2.06-4.515,4.515-4.515h122.478c2.494,0,4.515,2.06,4.515,4.515v18.142
		H220.414z"/>
	<path fill="#06D79C" d="M347.407,248.139h-6.814c2.495,0,4.517,2.06,4.517,4.515v18.142v86.154c0,2.495-2.06,4.516-4.517,4.516
		h6.814c2.494,0,4.515-2.06,4.515-4.516v-86.154v-18.142C351.922,250.159,349.901,248.139,347.407,248.139"/>
	<path fill="#FFFFFF" d="M224.969,248.139h6.774c-2.496,0-4.516,2.06-4.516,4.515v18.142v86.154c0,2.495,2.06,4.516,4.516,4.516
		h-6.813c-2.495,0-4.515-2.06-4.515-4.516v-86.154v-18.142C220.414,250.159,222.474,248.139,224.969,248.139"/>
	<g>
		<polygon fill="#E6FBF5" points="238.556,298.008 252.182,298.008 252.182,284.421 238.556,284.421 		"/>
		<polygon fill="#E6FBF5" points="265.768,298.008 279.395,298.008 279.395,284.421 265.768,284.421 		"/>
		<polygon fill="#E6FBF5" points="292.98,298.008 306.607,298.008 306.607,284.421 292.98,284.421 		"/>
		<polygon fill="#E6FBF5" points="320.194,298.008 333.78,298.008 333.78,284.421 320.194,284.421 		"/>
		<polygon fill="#E6FBF5" points="238.556,322.964 252.182,322.964 252.182,309.336 238.556,309.336 		"/>
		<polygon fill="#E6FBF5" points="265.768,322.964 279.395,322.964 279.395,309.336 265.768,309.336 		"/>
		<polygon fill="#E6FBF5" points="238.556,347.919 252.182,347.919 252.182,334.293 238.556,334.293 		"/>
		<polygon fill="#E6FBF5" points="265.768,347.919 279.395,347.919 279.395,334.293 265.768,334.293 		"/>
	</g>
	<path fill="#E6FBF5" d="M336.077,329.776c0-12.478-10.219-22.657-22.657-22.657c-12.438,0-22.657,10.219-22.657,22.657
		c0,12.438,10.22,22.657,22.657,22.657C325.858,352.434,336.077,342.254,336.077,329.776"/>
	<path fill="#82EBCD" d="M313.381,307.078c-1.149,0-2.258,0.238-3.407,0.238c10.894,1.822,19.29,11.092,19.29,22.46
		c0,11.329-8.396,20.875-19.29,22.46c1.149,0.236,2.258,0.236,3.407,0.236c12.478,0,22.657-10.219,22.657-22.656
		S325.858,307.078,313.381,307.078"/>
	<path fill="#06D79C" d="M347.407,363.764H224.969c-3.842,0-6.812-2.933-6.812-6.814v-86.154c0-1.347,0.911-2.258,2.258-2.258
		h131.508c1.347,0,2.258,0.911,2.258,2.258v86.154C354.22,360.831,351.248,363.764,347.407,363.764z M222.711,273.093v83.896
		c0,1.347,0.911,2.258,2.258,2.258h122.438c1.347,0,2.257-0.911,2.257-2.258v-83.896H222.711z"/>
	<path fill="#06D79C" d="M351.922,273.093H220.414c-1.347,0-2.258-0.912-2.258-2.258v-18.142c0-3.843,2.931-6.813,6.812-6.813
		h122.438c3.841,0,6.812,2.931,6.812,6.813v18.102C354.22,272.182,353.308,273.093,351.922,273.093z M222.711,268.538h126.994
		v-15.884c0-1.347-0.912-2.258-2.259-2.258H224.969c-1.347,0-2.258,0.912-2.258,2.258V268.538L222.711,268.538z"/>
	<path fill="#06D79C" d="M336.077,259.467c-1.346,0-2.257-0.911-2.257-2.258c0-1.347,0.911-2.258,2.257-2.258
		c3.844,0,6.813-2.931,6.813-6.812c0-3.882-2.931-6.813-6.813-6.813c-3.881,0-6.813,2.932-6.813,6.813
		c0,1.347-0.909,2.257-2.257,2.257c-1.347,0-2.259-0.911-2.259-2.257c0-6.338,4.991-11.329,11.329-11.329
		c6.339,0,11.33,4.991,11.33,11.329C347.407,254.476,342.416,259.467,336.077,259.467z"/>
	<path fill="#06D79C" d="M311.123,259.467c-1.347,0-2.259-0.911-2.259-2.258c0-1.347,0.912-2.258,2.259-2.258
		c3.842,0,6.813-2.931,6.813-6.812c0-3.882-2.933-6.813-6.813-6.813c-3.883,0-6.812,2.932-6.812,6.813
		c0,1.347-0.913,2.257-2.259,2.257c-1.347,0-2.258-0.911-2.258-2.257c0-6.338,4.991-11.329,11.329-11.329
		s11.327,4.991,11.327,11.329C322.45,254.476,317.461,259.467,311.123,259.467z"/>
	<path fill="#06D79C" d="M286.168,259.467c-1.347,0-2.257-0.911-2.257-2.258c0-1.347,0.91-2.258,2.257-2.258
		c3.842,0,6.812-2.931,6.812-6.812c0-3.882-2.931-6.813-6.812-6.813s-6.813,2.932-6.813,6.813c0,1.347-0.911,2.257-2.258,2.257
		c-1.347,0-2.258-0.911-2.258-2.257c0-6.338,4.992-11.329,11.33-11.329c6.338,0,11.329,4.991,11.329,11.329
		C297.497,254.476,292.546,259.467,286.168,259.467z"/>
	<path fill="#06D79C" d="M261.252,259.467c-1.347,0-2.258-0.911-2.258-2.258c0-1.347,0.911-2.258,2.258-2.258
		c3.842,0,6.813-2.931,6.813-6.812c0-3.882-2.932-6.813-6.813-6.813c-3.842,0-6.812,2.932-6.812,6.813
		c0,1.347-0.912,2.257-2.258,2.257c-1.347,0-2.258-0.911-2.258-2.257c0-6.338,4.99-11.329,11.328-11.329
		c6.337,0,11.329,4.991,11.329,11.329C272.581,254.476,267.59,259.467,261.252,259.467z"/>
	<path fill="#06D79C" d="M236.298,259.467c-1.347,0-2.258-0.911-2.258-2.258c0-1.347,0.911-2.258,2.258-2.258
		c3.842,0,6.812-2.931,6.812-6.812c0-3.882-2.931-6.813-6.812-6.813c-3.883,0-6.813,2.932-6.813,6.813
		c0,1.347-0.911,2.257-2.258,2.257c-1.347,0-2.258-0.911-2.258-2.257c0-6.338,4.991-11.329,11.329-11.329
		c6.337,0,11.328,4.991,11.328,11.329C247.626,254.476,242.635,259.467,236.298,259.467z"/>
	<path fill="#06D79C" d="M252.182,300.307h-13.587c-1.346,0-2.257-0.912-2.257-2.259v-13.586c0-1.347,0.911-2.258,2.257-2.258
		h13.587c1.346,0,2.258,0.912,2.258,2.258v13.586C254.44,299.395,253.528,300.307,252.182,300.307z M240.814,295.751h9.07v-9.072
		h-9.07V295.751z"/>
	<path fill="#06D79C" d="M279.395,300.307h-13.586c-1.347,0-2.258-0.912-2.258-2.259v-13.586c0-1.347,0.911-2.258,2.258-2.258
		h13.586c1.347,0,2.258,0.912,2.258,2.258v13.586C281.652,299.395,280.741,300.307,279.395,300.307z M268.026,295.751h9.071v-9.072
		h-9.071V295.751z"/>
	<path fill="#06D79C" d="M306.607,300.307h-13.587c-1.347,0-2.258-0.912-2.258-2.259v-13.586c0-1.347,0.911-2.258,2.258-2.258
		h13.587c1.346,0,2.257,0.912,2.257,2.258v13.586C308.864,299.395,307.953,300.307,306.607,300.307z M295.239,295.751h9.071v-9.072
		h-9.071V295.751z"/>
	<path fill="#06D79C" d="M333.78,300.307h-13.586c-1.347,0-2.258-0.912-2.258-2.259v-13.586c0-1.347,0.911-2.258,2.258-2.258h13.586
		c1.347,0,2.258,0.912,2.258,2.258v13.586C336.077,299.395,335.167,300.307,333.78,300.307z M322.45,295.751h9.073v-9.072h-9.073
		V295.751z"/>
	<path fill="#06D79C" d="M252.182,325.221h-13.587c-1.346,0-2.257-0.91-2.257-2.257v-13.587c0-1.348,0.911-2.258,2.257-2.258h13.587
		c1.346,0,2.258,0.91,2.258,2.258v13.587C254.44,324.311,253.528,325.221,252.182,325.221z M240.814,320.705h9.07v-9.069h-9.07
		V320.705z"/>
	<path fill="#06D79C" d="M279.395,325.221h-13.586c-1.347,0-2.258-0.91-2.258-2.257v-13.587c0-1.348,0.911-2.258,2.258-2.258h13.586
		c1.347,0,2.258,0.91,2.258,2.258v13.587C281.652,324.311,280.741,325.221,279.395,325.221z M268.026,320.705h9.071v-9.069h-9.071
		V320.705z"/>
	<path fill="#06D79C" d="M252.182,350.177h-13.587c-1.346,0-2.257-0.912-2.257-2.258v-13.588c0-1.346,0.911-2.257,2.257-2.257
		h13.587c1.346,0,2.258,0.911,2.258,2.257v13.588C254.44,349.265,253.528,350.177,252.182,350.177z M240.814,345.621h9.07v-9.071
		h-9.07V345.621z"/>
	<path fill="#06D79C" d="M279.395,350.177h-13.586c-1.347,0-2.258-0.912-2.258-2.258v-13.588c0-1.346,0.911-2.257,2.258-2.257
		h13.586c1.347,0,2.258,0.911,2.258,2.257v13.588C281.652,349.265,280.741,350.177,279.395,350.177z M268.026,345.621h9.071v-9.071
		h-9.071V345.621z"/>
	<path fill="#06D79C" d="M313.381,354.691c-13.824,0-24.955-11.09-24.955-24.955c0-13.863,11.091-24.954,24.955-24.954
		s24.953,11.091,24.953,24.954C338.334,343.602,327.205,354.691,313.381,354.691z M313.381,309.336c-11.329,0-20.4,9.072-20.4,20.4
		c0,11.329,9.071,20.399,20.4,20.399c11.328,0,20.399-9.07,20.399-20.399C333.78,318.408,324.709,309.336,313.381,309.336z"/>
	<path fill="#005BEA" d="M307.953,342.294c-0.634,0-1.029-0.198-1.424-0.635l-8.24-8.198c-0.832-0.832-0.832-2.061,0-2.893
		c0.831-0.832,2.06-0.832,2.891,0l6.378,6.378l10.894-16.44c0.634-1.029,1.861-1.227,2.891-0.632
		c1.03,0.632,1.229,1.861,0.635,2.892l-12.359,18.497C309.379,341.897,308.786,342.294,307.953,342.294
		C308.151,342.294,307.953,342.294,307.953,342.294z"/>
	<g>
		<circle fill="#06D79C" cx="199.222" cy="322.251" r="24.163"/>
		<circle fill="#005BEA" cx="199.222" cy="322.25" r="19.529"/>
		<g>
			<path fill="#FFFFFF" d="M199.182,325.022c3.724,0,6.655-4.595,6.655-8.714c0-4.277-2.932-6.456-6.655-6.456
				c-3.723,0-6.654,2.297-6.654,6.456C192.528,320.428,195.458,325.022,199.182,325.022z"/>
			<path fill="#FFFFFF" d="M208.57,327.004l-4.238-2.06l-2.853,5.901l-1.426-3.803c-0.317,0.12-0.554,0.12-0.872,0.12
				c-0.316,0-0.554-0.12-0.871-0.12l-1.545,4.041l-2.852-6.021l-4.159,1.98c-1.862,0.871-3.367,3.05-3.367,4.793v2.853h25.627
				v-2.891C211.937,330.174,210.432,327.955,208.57,327.004z"/>
		</g>
	</g>
	<g>
		<circle fill="#06D79C" cx="363.092" cy="299.989" r="18.023"/>
		<circle fill="#005BEA" cx="363.092" cy="299.988" r="14.577"/>
		<g>
			<path fill="#FFFFFF" d="M363.172,302.088c-2.773,0-4.991-3.406-4.991-6.536c0-3.169,2.218-4.792,4.991-4.792
				s4.99,1.702,4.99,4.792C368.124,298.642,365.945,302.088,363.172,302.088z"/>
			<path fill="#FFFFFF" d="M356.12,303.555l3.169-1.546l2.141,4.397l1.068-2.852c0.238,0.078,0.396,0.078,0.674,0.078
				c0.238,0,0.396-0.078,0.633-0.078l1.148,3.01l2.101-4.477l3.089,1.467c1.387,0.633,2.536,2.297,2.536,3.604v2.141h-19.172v-2.141
				C353.627,305.891,354.735,304.268,356.12,303.555z"/>
		</g>
	</g>
</g>
</svg>
