<?xml version="1.0" encoding="utf-8"?>
<!-- Generator: Adobe Illustrator 16.0.0, SVG Export Plug-In . SVG Version: 6.00 Build 0)  -->
<!DOCTYPE svg PUBLIC "-//W3C//DTD SVG 1.1//EN" "http://www.w3.org/Graphics/SVG/1.1/DTD/svg11.dtd">
<svg version="1.1" id="Layer_1" xmlns="http://www.w3.org/2000/svg" xmlns:xlink="http://www.w3.org/1999/xlink" x="0px" y="0px"
	 width="600px" height="309.879px" viewBox="0 145.061 600 309.879" enable-background="new 0 145.061 600 309.879"
	 xml:space="preserve">
<g id="File_Sharing">
	<g>
		<g>
			<path fill="#D2E9F7" d="M70.084,244.175L70.084,244.175c0,9.04,7.362,16.402,16.402,16.402h79.87
				c7.502,0,13.56,6.058,13.56,13.56l0,0c-0.046,7.456-6.104,13.514-13.56,13.514H27.772c-11.51,0-20.876,9.32-20.876,20.876l0,0
				c0,11.51,9.32,20.876,20.876,20.876h66.31c9.133,0,16.542,7.409,16.542,16.542l0,0c0,9.134-7.409,16.543-16.542,16.543h-4.613
				c-15.797,0-28.565,12.768-28.565,28.564l0,0c0,15.797,12.768,28.565,28.565,28.565h349.44c10.392,0,18.826-8.435,18.826-18.826
				l0,0c0-10.392-8.435-18.825-18.826-18.825h-10.064c-7.969,0-14.446-6.478-14.446-14.445l0,0c0-7.969,6.478-14.446,14.446-14.446
				h78.704c11.044,0,20.037-8.946,20.037-20.037l0,0c0-11.044-8.946-20.037-20.037-20.037h-58.946
				c-9.833,0-17.801-7.968-17.801-17.801l0,0c0-9.832,7.968-17.8,17.801-17.8H575.21c13.7,0,24.79-11.09,24.79-24.791l0,0
				c0-13.7-11.091-24.79-24.79-24.79H86.44C77.4,227.772,70.084,235.088,70.084,244.175z"/>
		</g>
		<g id="XMLID_584_">
			<circle fill="#5FB0E5" cx="174.511" cy="161.277" r="1.491"/>
		</g>
		<g id="XMLID_21_">
			<circle fill="#5FB0E5" cx="458.9" cy="368.872" r="1.491"/>
		</g>
		<g id="XMLID_25_">
			<circle fill="#5FB0E5" cx="566.962" cy="302.843" r="1.491"/>
		</g>
		<g id="XMLID_32_">
			<circle fill="#5FB0E5" cx="117.708" cy="277.307" r="1.491"/>
		</g>
		<g id="XMLID_13_">
			<circle fill="#5FB0E5" cx="467.801" cy="299.208" r="1.445"/>
		</g>
		<g id="XMLID_16_">
			<circle fill="#5FB0E5" cx="297.437" cy="196.086" r="2.889"/>
		</g>
		<g id="XMLID_22_">
			<circle fill="#5FB0E5" cx="105.219" cy="196.086" r="2.097"/>
		</g>
		<g id="XMLID_276_">
			<circle fill="#5FB0E5" cx="2.097" cy="366.356" r="2.097"/>
		</g>
		<g id="XMLID_24_">
			<circle fill="#5FB0E5" cx="179.963" cy="206.57" r="2.516"/>
		</g>
		<g id="XMLID_17_">
			<path fill="#5FB0E5" d="M330.103,157.409c-2.609,0.699-3.169,1.258-3.821,3.821c-0.699-2.609-1.258-3.168-3.821-3.821
				c2.61-0.699,3.169-1.258,3.821-3.821C326.934,156.198,327.493,156.757,330.103,157.409z"/>
		</g>
		<g id="XMLID_23_">
			<path fill="#5FB0E5" d="M553.309,354.055c-2.423,0.652-2.936,1.164-3.588,3.588c-0.652-2.424-1.165-2.936-3.588-3.588
				c2.423-0.652,2.936-1.166,3.588-3.589C550.373,352.889,550.886,353.402,553.309,354.055z"/>
		</g>
		<g id="XMLID_18_">
			<path fill="#5FB0E5" d="M85.834,350.885c-3.168,0.84-3.868,1.538-4.707,4.707c-0.838-3.169-1.538-3.867-4.706-4.707
				c3.168-0.838,3.868-1.537,4.706-4.706C82.013,349.348,82.666,350,85.834,350.885z"/>
		</g>
		<g id="XMLID_29_">
			<path fill="#5FB0E5" d="M508.667,292.73c-4.007,1.072-4.846,1.911-5.918,5.918c-1.071-4.007-1.91-4.846-5.918-5.918
				c4.008-1.072,4.847-1.91,5.918-5.918C503.821,290.82,504.66,291.706,508.667,292.73z"/>
		</g>
		<g id="XMLID_28_">
			<path fill="#5FB0E5" d="M432.525,186.253c-3.168,0.839-3.867,1.538-4.706,4.707c-0.839-3.169-1.538-3.868-4.706-4.707
				c3.168-0.839,3.867-1.538,4.706-4.707C428.658,184.716,429.357,185.415,432.525,186.253z"/>
		</g>
		<g id="XMLID_19_">
			<path fill="#5FB0E5" d="M53.961,257.223c-3.309,0.885-4.007,1.584-4.893,4.893c-0.885-3.309-1.584-4.008-4.893-4.893
				c3.309-0.885,4.007-1.584,4.893-4.893C49.954,255.638,50.652,256.337,53.961,257.223z"/>
		</g>
	</g>
	<circle id="Background_2" fill="#D2E9F7" cx="278.146" cy="300" r="154.939"/>
</g>
<circle fill="#F6F9FC" cx="277" cy="300" r="134.43"/>
<g id="Layer_2">
</g>
<g id="Layer_2_1_">
	
		<line fill="none" stroke="#06D79C" stroke-width="4.1391" stroke-miterlimit="10" x1="278.566" y1="398.088" x2="278.566" y2="204.579"/>
	
		<line fill="none" stroke="#06D79C" stroke-width="4.1391" stroke-miterlimit="10" x1="181.831" y1="301.314" x2="375.34" y2="301.314"/>
	
		<line fill="none" stroke="#06D79C" stroke-width="4.1391" stroke-miterlimit="10" x1="222.201" y1="357.718" x2="334.93" y2="244.95"/>
	
		<line fill="none" stroke="#06D79C" stroke-width="4.1391" stroke-miterlimit="10" x1="222.201" y1="244.95" x2="334.93" y2="357.718"/>
	<circle fill="#E6FBF5" stroke="#06D79C" stroke-width="4.1391" stroke-miterlimit="10" cx="278.566" cy="301.314" r="57.819"/>
	<circle fill="#06D79C" cx="181.831" cy="301.314" r="10.829"/>
	<circle fill="#06D79C" cx="375.34" cy="301.314" r="10.829"/>
	<circle fill="#06D79C" cx="278.566" cy="204.58" r="10.829"/>
	<circle fill="#06D79C" cx="278.566" cy="398.088" r="10.829"/>
	<g>
		<g>
			<path fill="#005BEA" d="M273.515,303.113c0,1.837-1.493,3.291-3.292,3.291c-1.836,0-3.291-1.492-3.291-3.291
				c0-1.837,1.493-3.291,3.291-3.291C272.061,299.822,273.515,301.276,273.515,303.113L273.515,303.113z M286.946,299.822
				c-1.836,0-3.29,1.492-3.29,3.291c0,1.837,1.492,3.291,3.29,3.291c1.799,0,3.291-1.492,3.291-3.291
				C290.237,301.276,288.745,299.822,286.946,299.822L286.946,299.822z M301.027,313.253v-0.383
				c-0.383,1.11-0.842,2.144-1.338,3.138c0.076,0.613,0.268,1.493,0.535,2.487c1.34,2.104,5.166,4.784,7.807,5.473
				c-1.416,0.612-3.139,0.841-4.783,0.612c1.529,1.913,3.672,3.635,6.695,4.668c-7.041,6.353-18.673,6.505-26.824,1.568
				c-1.568,0.46-3.1,0.69-4.554,0.69s-2.984-0.23-4.554-0.69c-8.112,4.937-19.745,4.784-26.824-1.568
				c3.061-1.071,5.242-2.831,6.773-4.783c-1.339,0.038-2.679-0.191-3.827-0.688c1.914-0.497,4.477-2.066,6.276-3.712
				c0.612-1.645,0.917-3.099,1.071-4.018c-0.498-0.995-0.957-2.066-1.339-3.138v0.383h-3.979c-3.138,0-5.702-2.564-5.702-5.702
				v-6.275c0-2.182,1.225-4.057,2.985-5.013c0.077-8.915,2.641-15.842,7.729-20.663c5.013-4.784,12.245-7.194,21.429-7.194
				c9.183,0,16.377,2.41,21.429,7.194c5.051,4.821,7.652,11.748,7.729,20.663c1.799,0.956,2.986,2.831,2.986,5.013v6.275
				c0,3.138-2.564,5.702-5.703,5.702h-4.018V313.253z M298.656,303.113c0-1.454-0.078-2.832-0.191-4.171
				c-2.564-2.335-7.271-4.134-13.203-4.745c0.957,0.842,1.761,1.952,2.181,3.559c-3.443-2.525-10.676-3.291-13.086-6.008l0,0
				c-3.827-2.525-4.822-6.16-4.86-4.669c-0.153,7.194-5.242,12.819-10.905,13.585c-0.038,0.804-0.076,1.606-0.076,2.411
				c0,3.023,0.497,5.816,1.339,8.303c3.176,3.827,8.419,4.936,13.087,5.205c0.88-1.378,2.793-2.335,5.051-2.335
				c3.062,0,5.549,1.76,5.549,3.941s-2.487,3.941-5.549,3.941c-2.333,0-4.362-1.033-5.166-2.525
				c-3.252-0.191-6.812-0.728-9.987-2.259c4.477,6.583,11.403,10.104,15.766,10.104
				C285.377,327.488,298.656,318.917,298.656,303.113L298.656,303.113z M302.1,295.574h2.182
				c-0.346-15.535-9.223-23.762-25.715-23.762s-25.37,8.228-25.714,23.762h2.181c0.804-5.242,2.487-9.528,5.09-12.856
				c4.095-5.28,10.293-7.96,18.444-7.96c8.15,0,14.351,2.68,18.444,7.96C299.611,286.008,301.295,290.332,302.1,295.574
				L302.1,295.574z"/>
		</g>
	</g>
	<g>
		<path fill="#FFFFFF" d="M278.566,205.23c1.646,0,2.985-2.067,2.985-3.903c0-1.913-1.34-2.908-2.985-2.908
			c-1.645,0-2.984,1.033-2.984,2.908C275.582,203.163,276.882,205.23,278.566,205.23z"/>
		<path fill="#FFFFFF" d="M282.775,206.11l-1.913-0.918l-1.263,2.64l-0.651-1.722c-0.153,0.038-0.229,0.038-0.382,0.038
			s-0.23-0.038-0.383-0.038l-0.688,1.799l-1.263-2.679l-1.875,0.88c-0.842,0.383-1.531,1.377-1.531,2.142v1.263h11.518v-1.263
			C284.268,207.526,283.579,206.531,282.775,206.11z"/>
	</g>
	<g>
		<path fill="#FFFFFF" d="M278.566,399.351c1.646,0,2.985-2.066,2.985-3.903c0-1.913-1.34-2.908-2.985-2.908
			c-1.645,0-2.984,1.034-2.984,2.908C275.582,397.284,276.882,399.351,278.566,399.351z"/>
		<path fill="#FFFFFF" d="M282.775,400.231l-1.913-0.92l-1.263,2.642l-0.651-1.722c-0.153,0.038-0.229,0.038-0.382,0.038
			s-0.23-0.038-0.383-0.038l-0.688,1.797l-1.263-2.678l-1.875,0.881c-0.842,0.383-1.531,1.377-1.531,2.143v1.262h11.518v-1.262
			C284.268,401.647,283.579,400.651,282.775,400.231z"/>
	</g>
	<g>
		<path fill="#FFFFFF" d="M181.793,302.577c1.645,0,2.984-2.066,2.984-3.902c0-1.914-1.339-2.908-2.984-2.908
			c-1.646,0-2.985,1.033-2.985,2.908C178.808,300.511,180.147,302.577,181.793,302.577z"/>
		<path fill="#FFFFFF" d="M186.002,303.457l-1.913-0.917l-1.263,2.64l-0.65-1.723c-0.154,0.038-0.23,0.038-0.383,0.038
			c-0.153,0-0.23-0.038-0.383-0.038l-0.689,1.799l-1.263-2.679l-1.875,0.88c-0.843,0.383-1.531,1.378-1.531,2.144v1.263h11.518
			v-1.263C187.532,304.873,186.844,303.917,186.002,303.457z"/>
	</g>
	<g>
		<path fill="#FFFFFF" d="M375.301,302.577c1.646,0,2.984-2.066,2.984-3.902c0-1.914-1.338-2.908-2.984-2.908
			c-1.645,0-2.984,1.033-2.984,2.908C372.316,300.511,373.656,302.577,375.301,302.577z"/>
		<path fill="#FFFFFF" d="M379.51,303.457l-1.912-0.917l-1.264,2.64l-0.65-1.723c-0.152,0.038-0.23,0.038-0.383,0.038
			s-0.229-0.038-0.383-0.038l-0.688,1.799l-1.264-2.679l-1.875,0.88c-0.842,0.383-1.531,1.378-1.531,2.144v1.263h11.52v-1.263
			C381.041,304.873,380.352,303.917,379.51,303.457z"/>
	</g>
</g>
</svg>
