<?xml version="1.0" encoding="utf-8"?>
<!-- Generator: Adobe Illustrator 16.0.0, SVG Export Plug-In . SVG Version: 6.00 Build 0)  -->
<!DOCTYPE svg PUBLIC "-//W3C//DTD SVG 1.1//EN" "http://www.w3.org/Graphics/SVG/1.1/DTD/svg11.dtd">
<svg version="1.1" id="Layer_1" xmlns="http://www.w3.org/2000/svg" xmlns:xlink="http://www.w3.org/1999/xlink" x="0px" y="0px"
	 width="600px" height="309.879px" viewBox="0 0 600 309.879" enable-background="new 0 0 600 309.879" xml:space="preserve">
<g id="Layer_2">
</g>
<g>
	<g id="File_Sharing">
		<g>
			<g>
				<path fill="#D2E9F7" d="M70.084,97.763L70.084,97.763c0,9.04,7.362,16.402,16.402,16.402h79.87c7.502,0,13.56,6.058,13.56,13.56
					l0,0c-0.046,7.456-6.104,13.514-13.56,13.514H27.772c-11.51,0-20.876,9.32-20.876,20.877l0,0c0,11.51,9.32,20.875,20.876,20.875
					h66.31c9.133,0,16.542,7.41,16.542,16.543l0,0c0,9.134-7.409,16.543-16.542,16.543h-4.613
					c-15.797,0-28.565,12.768-28.565,28.563l0,0c0,15.797,12.768,28.565,28.565,28.565h349.44c10.392,0,18.826-8.436,18.826-18.826
					l0,0c0-10.393-8.436-18.825-18.826-18.825h-10.064c-7.969,0-14.445-6.478-14.445-14.444l0,0c0-7.97,6.478-14.446,14.445-14.446
					h78.704c11.044,0,20.037-8.946,20.037-20.037l0,0c0-11.044-8.946-20.037-20.037-20.037h-58.945
					c-9.834,0-17.802-7.968-17.802-17.801l0,0c0-9.832,7.968-17.8,17.802-17.8H575.21c13.7,0,24.79-11.09,24.79-24.791l0,0
					c0-13.7-11.091-24.791-24.79-24.791H86.44C77.4,81.359,70.084,88.676,70.084,97.763z"/>
			</g>
			<g id="XMLID_584_">
				<circle fill="#5FB0E5" cx="174.511" cy="14.865" r="1.491"/>
			</g>
			<g id="XMLID_21_">
				<circle fill="#5FB0E5" cx="458.9" cy="222.46" r="1.491"/>
			</g>
			<g id="XMLID_25_">
				<circle fill="#5FB0E5" cx="566.962" cy="156.431" r="1.491"/>
			</g>
			<g id="XMLID_32_">
				<circle fill="#5FB0E5" cx="117.708" cy="130.895" r="1.491"/>
			</g>
			<g id="XMLID_13_">
				<circle fill="#5FB0E5" cx="467.801" cy="152.796" r="1.444"/>
			</g>
			<g id="XMLID_16_">
				<circle fill="#5FB0E5" cx="297.437" cy="49.674" r="2.889"/>
			</g>
			<g id="XMLID_22_">
				<circle fill="#5FB0E5" cx="105.219" cy="49.674" r="2.097"/>
			</g>
			<g id="XMLID_276_">
				<circle fill="#5FB0E5" cx="2.097" cy="219.944" r="2.097"/>
			</g>
			<g id="XMLID_24_">
				<circle fill="#5FB0E5" cx="179.963" cy="60.158" r="2.516"/>
			</g>
			<g id="XMLID_17_">
				<path fill="#5FB0E5" d="M330.103,10.997c-2.608,0.698-3.169,1.258-3.82,3.821c-0.699-2.609-1.258-3.168-3.821-3.821
					c2.61-0.699,3.169-1.259,3.821-3.821C326.934,9.786,327.493,10.345,330.103,10.997z"/>
			</g>
			<g id="XMLID_23_">
				<path fill="#5FB0E5" d="M553.309,207.643c-2.423,0.652-2.936,1.164-3.588,3.588c-0.651-2.424-1.165-2.936-3.588-3.588
					c2.423-0.652,2.937-1.166,3.588-3.589C550.373,206.477,550.886,206.99,553.309,207.643z"/>
			</g>
			<g id="XMLID_18_">
				<path fill="#5FB0E5" d="M85.834,204.473c-3.168,0.84-3.868,1.538-4.707,4.707c-0.838-3.169-1.538-3.867-4.706-4.707
					c3.168-0.838,3.868-1.537,4.706-4.705C82.013,202.936,82.666,203.588,85.834,204.473z"/>
			</g>
			<g id="XMLID_29_">
				<path fill="#5FB0E5" d="M508.667,146.318c-4.007,1.071-4.846,1.91-5.918,5.918c-1.071-4.008-1.91-4.847-5.918-5.918
					c4.008-1.072,4.847-1.91,5.918-5.918C503.821,144.408,504.66,145.294,508.667,146.318z"/>
			</g>
			<g id="XMLID_28_">
				<path fill="#5FB0E5" d="M432.525,39.841c-3.168,0.839-3.867,1.538-4.706,4.707c-0.839-3.169-1.538-3.868-4.706-4.707
					c3.168-0.839,3.867-1.538,4.706-4.707C428.658,38.304,429.357,39.003,432.525,39.841z"/>
			</g>
			<g id="XMLID_19_">
				<path fill="#5FB0E5" d="M53.961,110.811c-3.309,0.885-4.007,1.584-4.893,4.894c-0.885-3.31-1.584-4.009-4.893-4.894
					c3.309-0.885,4.007-1.584,4.893-4.893C49.954,109.227,50.652,109.925,53.961,110.811z"/>
			</g>
		</g>
		<circle id="Background_2" fill="#D2E9F7" cx="278.146" cy="153.588" r="154.939"/>
	</g>
	<g>
		<circle fill="#F6F9FC" cx="277" cy="153.588" r="134.43"/>
		<polygon fill="#E6FBF5" points="310.219,150.309 284.75,169.152 277,168.152 267.29,169.152 244.438,149.652 244.438,102.902 
			309.563,102.902 		"/>
		<g>
			<path fill="none" stroke="#06D79C" stroke-width="4.1391" stroke-linejoin="round" stroke-miterlimit="10" d="M242.373,138.261
				h-17.312v68.03H328.94v-68.03h-17.314 M225.061,204.119l45.014-32.93l6.925-5.06l6.927,5.06l45.015,32.93 M328.939,138.261
				l-17.314-12.663 M242.373,125.598l-17.312,12.663 M270.074,171.189l-27.701-20.269l-17.312-12.66 M328.939,138.261l-17.314,12.66
				l-27.699,20.269 M311.625,150.921v-50.036h-69.252v50.036"/>
		</g>
	</g>
	
		<path fill="#F6F9FC" stroke="#06D79C" stroke-width="4.1391" stroke-linecap="round" stroke-linejoin="round" stroke-miterlimit="10" d="
		M253.896,140.045h47.111 M258.53,151.505h37.845"/>
</g>
</svg>
